#N canvas 0 0 450 300 10;
#X obj 126 62 inlet;
#X obj 141 83 inlet;
#X obj 126 141 outlet;
#X text 191 94 --;
#X text 191 124 inlet changes;
#X text 191 110 Automatically subtracts when either;
#X obj 126 117 -;
#X obj 82 100 delay;
#X connect 0 0 6 0;
#X connect 1 0 6 1;
#X connect 1 0 7 0;
#X connect 6 0 2 0;
#X connect 7 0 6 0;
