#N canvas 0 0 450 300 10;
#X obj 126 62 inlet;
#X obj 141 83 inlet;
#X msg 89 100 bang;
#X obj 126 141 outlet;
#X text 191 124 inlet changes;
#X text 191 110 Automatically divides when either;
#X obj 126 117 /;
#X text 191 94 div;
#X connect 0 0 6 0;
#X connect 1 0 2 0;
#X connect 1 0 6 1;
#X connect 2 0 6 0;
#X connect 6 0 3 0;
