#N canvas 121 14 1042 564 10;
#X obj 719 9 notein;
#X obj 686 102 pack f f;
#X obj 724 185 s globalmidi;
#X obj 633 104 ctlin;
#X obj 633 169 s globalctl;
#X obj 633 125 pack f f;
#X obj 633 147 route 127;
#X obj 100 100 cnv 15 498 498 empty empty empty 20 12 0 14 -33289 -66577
0;
#X obj 536 102 pad 88;
#X obj 102 536 pad 11;
#X obj 102 102 pad 81;
#X obj 226 474 pad 23;
#X obj 102 474 pad 21;
#X obj 536 474 pad 28;
#X obj 164 536 pad 12;
#X obj 226 536 pad 13;
#X obj 288 536 pad 14;
#X obj 350 536 pad 15;
#X obj 412 536 pad 16;
#X obj 474 536 pad 17;
#X obj 536 536 pad 18;
#X obj 164 474 pad 22;
#X obj 288 474 pad 24;
#X obj 350 474 pad 25;
#X obj 412 474 pad 26;
#X obj 474 474 pad 27;
#X obj 102 412 pad 31;
#X obj 164 412 pad 32;
#X obj 226 412 pad 33;
#X obj 288 412 pad 34;
#X obj 350 412 pad 35;
#X obj 412 412 pad 36;
#X obj 474 412 pad 37;
#X obj 536 412 pad 38;
#X obj 102 350 pad 41;
#X obj 164 350 pad 42;
#X obj 226 350 pad 43;
#X obj 288 350 pad 44;
#X obj 350 350 pad 45;
#X obj 412 350 pad 46;
#X obj 474 350 pad 47;
#X obj 536 350 pad 48;
#X obj 102 288 pad 51;
#X obj 164 288 pad 52;
#X obj 226 288 pad 53;
#X obj 288 288 pad 54;
#X obj 350 288 pad 55;
#X obj 412 288 pad 56;
#X obj 474 288 pad 57;
#X obj 536 288 pad 58;
#X obj 102 226 pad 61;
#X obj 164 226 pad 62;
#X obj 226 226 pad 63;
#X obj 288 226 pad 64;
#X obj 350 226 pad 65;
#X obj 412 226 pad 66;
#X obj 474 226 pad 67;
#X obj 536 226 pad 68;
#X obj 288 164 pad 74;
#X obj 350 164 pad 75;
#X obj 412 164 pad 76;
#X obj 474 164 pad 77;
#X obj 536 164 pad 78;
#X obj 288 102 pad 84;
#X obj 350 102 pad 85;
#X obj 412 102 pad 86;
#X obj 474 102 pad 87;
#X obj 102 164 pad 71;
#X obj 164 164 pad 72;
#X obj 226 164 pad 73;
#X obj 164 102 pad 82;
#X obj 226 102 pad 83;
#X obj 779 440 s~ stereooutl;
#X obj 778 476 s~ stereooutr;
#X obj 724 165 gate;
#X msg 762 134 1;
#X obj 762 112 loadbang;
#X obj 794 134 r globalmidienable;
#X obj 686 53 gate 2;
#X obj 686 31 r modelselector;
#X obj 910 262 r noteout;
#X obj 877 284 gate 2;
#X obj 877 230 r modelselector;
#X obj 877 363 noteout;
#X obj 877 315 unpack f f f;
#X floatatom 792 91 5 0 0 0 - - -;
#X floatatom 787 58 5 0 0 0 - - -;
#X msg 886 47 \; modelselector 1;
#X obj 686 77 minitomk2;
#X obj 877 339 mk2tomini;
#X obj 894 98 mk2tomini;
#X obj 886 26 loadbang;
#X connect 0 0 86 0;
#X connect 0 0 78 1;
#X connect 0 1 1 1;
#X connect 1 0 74 1;
#X connect 3 0 5 0;
#X connect 3 1 5 1;
#X connect 5 0 6 0;
#X connect 6 0 4 0;
#X connect 8 0 72 0;
#X connect 8 1 73 0;
#X connect 9 0 72 0;
#X connect 9 1 73 0;
#X connect 10 0 72 0;
#X connect 10 1 73 0;
#X connect 11 0 72 0;
#X connect 11 1 73 0;
#X connect 12 0 72 0;
#X connect 12 1 73 0;
#X connect 13 0 72 0;
#X connect 13 1 73 0;
#X connect 14 0 72 0;
#X connect 14 1 73 0;
#X connect 15 0 72 0;
#X connect 15 1 73 0;
#X connect 16 0 72 0;
#X connect 16 1 73 0;
#X connect 17 0 72 0;
#X connect 17 1 73 0;
#X connect 18 0 72 0;
#X connect 18 1 73 0;
#X connect 19 0 72 0;
#X connect 19 1 73 0;
#X connect 20 0 72 0;
#X connect 20 1 73 0;
#X connect 21 0 72 0;
#X connect 21 1 73 0;
#X connect 22 0 72 0;
#X connect 22 1 73 0;
#X connect 23 0 72 0;
#X connect 23 1 73 0;
#X connect 24 0 72 0;
#X connect 24 1 73 0;
#X connect 25 0 72 0;
#X connect 25 1 73 0;
#X connect 26 0 72 0;
#X connect 26 1 73 0;
#X connect 27 0 72 0;
#X connect 27 1 73 0;
#X connect 28 0 72 0;
#X connect 28 1 73 0;
#X connect 29 0 72 0;
#X connect 29 1 73 0;
#X connect 30 0 72 0;
#X connect 30 1 73 0;
#X connect 31 0 72 0;
#X connect 31 1 73 0;
#X connect 32 0 72 0;
#X connect 32 1 73 0;
#X connect 33 0 72 0;
#X connect 33 1 73 0;
#X connect 34 0 72 0;
#X connect 34 1 73 0;
#X connect 35 0 72 0;
#X connect 35 1 73 0;
#X connect 36 0 72 0;
#X connect 36 1 73 0;
#X connect 37 0 72 0;
#X connect 37 1 73 0;
#X connect 38 0 72 0;
#X connect 38 1 73 0;
#X connect 39 0 72 0;
#X connect 39 1 73 0;
#X connect 40 0 72 0;
#X connect 40 1 73 0;
#X connect 41 0 72 0;
#X connect 41 1 73 0;
#X connect 42 0 72 0;
#X connect 42 1 73 0;
#X connect 43 0 72 0;
#X connect 43 1 73 0;
#X connect 44 0 72 0;
#X connect 44 1 73 0;
#X connect 45 0 72 0;
#X connect 45 1 73 0;
#X connect 46 0 72 0;
#X connect 46 1 73 0;
#X connect 47 0 72 0;
#X connect 47 1 73 0;
#X connect 48 0 72 0;
#X connect 48 1 73 0;
#X connect 49 0 72 0;
#X connect 49 1 73 0;
#X connect 50 0 72 0;
#X connect 50 1 73 0;
#X connect 51 0 72 0;
#X connect 51 1 73 0;
#X connect 52 0 72 0;
#X connect 52 1 73 0;
#X connect 53 0 72 0;
#X connect 53 1 73 0;
#X connect 54 0 72 0;
#X connect 54 1 73 0;
#X connect 55 0 72 0;
#X connect 55 1 73 0;
#X connect 56 0 72 0;
#X connect 56 1 73 0;
#X connect 57 0 72 0;
#X connect 57 1 73 0;
#X connect 58 0 72 0;
#X connect 58 1 73 0;
#X connect 59 0 72 0;
#X connect 59 1 73 0;
#X connect 60 0 72 0;
#X connect 60 1 73 0;
#X connect 61 0 72 0;
#X connect 61 1 73 0;
#X connect 62 0 72 0;
#X connect 62 1 73 0;
#X connect 63 0 72 0;
#X connect 63 1 73 0;
#X connect 64 0 72 0;
#X connect 64 1 73 0;
#X connect 65 0 72 0;
#X connect 65 1 73 0;
#X connect 66 0 72 0;
#X connect 66 1 73 0;
#X connect 67 0 72 0;
#X connect 67 1 73 0;
#X connect 68 0 72 0;
#X connect 68 1 73 0;
#X connect 69 0 72 0;
#X connect 69 1 73 0;
#X connect 70 0 72 0;
#X connect 70 1 73 0;
#X connect 71 0 72 0;
#X connect 71 1 73 0;
#X connect 74 0 2 0;
#X connect 75 0 74 0;
#X connect 76 0 75 0;
#X connect 77 0 74 0;
#X connect 78 0 88 0;
#X connect 78 1 1 0;
#X connect 79 0 78 0;
#X connect 80 0 81 1;
#X connect 81 0 84 0;
#X connect 81 1 83 0;
#X connect 82 0 81 0;
#X connect 84 0 89 0;
#X connect 84 1 89 1;
#X connect 84 2 89 2;
#X connect 88 0 1 0;
#X connect 88 0 85 0;
#X connect 89 0 83 0;
#X connect 89 1 83 1;
#X connect 89 2 83 2;
#X connect 91 0 87 0;
#X coords 0 -1 1 1 498 498 1 100 100;
