#N canvas 152 32 1042 564 10;
#X obj 697 104 notein;
#X obj 697 125 pack f f;
#X obj 724 185 s globalmidi;
#X obj 633 104 ctlin;
#X obj 633 169 s globalctl;
#X obj 633 125 pack f f;
#X obj 633 147 route 127;
#X obj 100 101 cnv 15 498 248 empty empty empty 20 12 0 14 -33289 -66577
0;
#X obj 102 288 pad 11;
#X obj 226 226 pad 23;
#X obj 102 226 pad 21;
#X obj 536 226 pad 28;
#X obj 164 288 pad 12;
#X obj 226 288 pad 13;
#X obj 288 288 pad 14;
#X obj 350 288 pad 15;
#X obj 412 288 pad 16;
#X obj 474 288 pad 17;
#X obj 536 288 pad 18;
#X obj 164 226 pad 22;
#X obj 288 226 pad 24;
#X obj 350 226 pad 25;
#X obj 412 226 pad 26;
#X obj 474 226 pad 27;
#X obj 102 164 pad 31;
#X obj 164 164 pad 32;
#X obj 226 164 pad 33;
#X obj 288 164 pad 34;
#X obj 350 164 pad 35;
#X obj 412 164 pad 36;
#X obj 474 164 pad 37;
#X obj 536 164 pad 38;
#X obj 102 102 pad 41;
#X obj 164 102 pad 42;
#X obj 226 102 pad 43;
#X obj 288 102 pad 44;
#X obj 350 102 pad 45;
#X obj 412 102 pad 46;
#X obj 474 102 pad 47;
#X obj 536 102 pad 48;
#X obj 779 440 s~ stereooutl;
#X obj 778 476 s~ stereooutr;
#X obj 724 165 gate;
#X msg 762 134 1;
#X obj 762 112 loadbang;
#X obj 794 134 r globalmidienable;
#X connect 0 0 1 0;
#X connect 0 1 1 1;
#X connect 1 0 42 1;
#X connect 3 0 5 0;
#X connect 3 1 5 1;
#X connect 5 0 6 0;
#X connect 6 0 4 0;
#X connect 8 0 40 0;
#X connect 8 1 41 0;
#X connect 9 0 40 0;
#X connect 9 1 41 0;
#X connect 10 0 40 0;
#X connect 10 1 41 0;
#X connect 11 0 40 0;
#X connect 11 1 41 0;
#X connect 12 0 40 0;
#X connect 12 1 41 0;
#X connect 13 0 40 0;
#X connect 13 1 41 0;
#X connect 14 0 40 0;
#X connect 14 1 41 0;
#X connect 15 0 40 0;
#X connect 15 1 41 0;
#X connect 16 0 40 0;
#X connect 16 1 41 0;
#X connect 17 0 40 0;
#X connect 17 1 41 0;
#X connect 18 0 40 0;
#X connect 18 1 41 0;
#X connect 19 0 40 0;
#X connect 19 1 41 0;
#X connect 20 0 40 0;
#X connect 20 1 41 0;
#X connect 21 0 40 0;
#X connect 21 1 41 0;
#X connect 22 0 40 0;
#X connect 22 1 41 0;
#X connect 23 0 40 0;
#X connect 23 1 41 0;
#X connect 24 0 40 0;
#X connect 24 1 41 0;
#X connect 25 0 40 0;
#X connect 25 1 41 0;
#X connect 26 0 40 0;
#X connect 26 1 41 0;
#X connect 27 0 40 0;
#X connect 27 1 41 0;
#X connect 28 0 40 0;
#X connect 28 1 41 0;
#X connect 29 0 40 0;
#X connect 29 1 41 0;
#X connect 30 0 40 0;
#X connect 30 1 41 0;
#X connect 31 0 40 0;
#X connect 31 1 41 0;
#X connect 32 0 40 0;
#X connect 32 1 41 0;
#X connect 33 0 40 0;
#X connect 33 1 41 0;
#X connect 34 0 40 0;
#X connect 34 1 41 0;
#X connect 35 0 40 0;
#X connect 35 1 41 0;
#X connect 36 0 40 0;
#X connect 36 1 41 0;
#X connect 37 0 40 0;
#X connect 37 1 41 0;
#X connect 38 0 40 0;
#X connect 38 1 41 0;
#X connect 39 0 40 0;
#X connect 39 1 41 0;
#X connect 42 0 2 0;
#X connect 43 0 42 0;
#X connect 44 0 43 0;
#X connect 45 0 42 0;
#X coords 0 -1 1 1 498 250 1 100 100;
