#N canvas 335 39 888 601 10;
#X obj 373 -9 inlet;
#X text 355 -28 Color group;
#X msg 410 180 color \$1;
#X obj 410 114 textfile;
#X msg 430 48 rewind;
#X obj 430 92 metro 1;
#X msg 489 70 stop;
#X msg 430 69 bang;
#X msg 430 25 read padcolorbank.txt;
#X obj 410 159 unpack f f f f;
#X obj 430 4 loadbang;
#X obj 189 131 route items;
#X obj 174 154 >;
#X obj 174 198 i;
#X obj 174 176 sel 1;
#X obj 174 241 print ERROR;
#X msg 174 219 Please use a number between 1 and \$1;
#X obj 410 201 s intcolorbg;
#X obj 262 182 s colormax;
#X obj 410 138 route 0;
#X connect 0 0 8 0;
#X connect 0 0 12 0;
#X connect 0 0 19 1;
#X connect 2 0 17 0;
#X connect 3 0 11 0;
#X connect 3 0 19 0;
#X connect 3 1 6 0;
#X connect 4 0 3 0;
#X connect 4 0 7 0;
#X connect 5 0 3 0;
#X connect 6 0 5 0;
#X connect 7 0 5 0;
#X connect 8 0 3 0;
#X connect 8 0 4 0;
#X connect 9 0 2 0;
#X connect 10 0 8 0;
#X connect 11 0 12 1;
#X connect 11 0 13 1;
#X connect 11 0 18 0;
#X connect 12 0 14 0;
#X connect 13 0 16 0;
#X connect 14 0 13 0;
#X connect 16 0 15 0;
#X connect 19 0 9 0;
