#N canvas 433 103 1407 686 10;
#X obj 100 100 cnv 10 400 275 empty empty empty 5 12 0 14 -33289 -66577
0;
#X obj 106 106 cnv 5 180 15 empty inttitle2r NoDiggity 20 8 1 14 -33289
-262144 0;
#X obj 120 79 s inttitler;
#X obj 261 106 cnv 15 25 15 empty inttitler 16 5 8 1 14 -33289 -262144
0;
#X msg 120 59 label \$1.;
#X obj 291 106 cnv 10 202 237 empty intcolorbg empty 20 12 0 14 -104158
-262144 0;
#X obj 307 308 bng 30 250 50 0 empty empty play 4 15 1 12 -4034 -4034
-262144;
#X obj 343 308 bng 30 250 50 0 empty empty pause 4 15 1 9 -260097 -260097
-262144;
#X obj 379 308 bng 30 250 50 0 empty empty stop 4 15 1 12 -258113 -258113
-262144;
#X obj 295 275 hsl 195 8 0 0.999 0 0 intstart@ intstart@r empty -2
-8 0 10 -1 -4034 -1 0 1;
#X obj 295 295 hsl 195 8 0 0.999 0 0 intstop@ intstop@r empty -2 -8
0 10 -1 -258113 -1 0 1;
#X obj 295 285 hsl 195 8 0 1 0 0 NULL NULLR empty -2 -8 0 10 -1 -262144
-1 0 1;
#X obj 106 127 cnv 10 118 60 empty intcolorbg empty 4 6 0 10 -104158
-262144 0;
#X obj 125 139 knob 38 38 0.125 8 1 0 inttrim inttrimr Trim -15 -5
1 11 -1 -262144 -262144 0 1;
#X obj 165 -52 s inttrimr;
#X obj 108 561 s topad;
#X obj 281 492 r intstart@;
#X msg 281 512 start@ \$1;
#X obj 353 492 r intstop@;
#X msg 353 512 stop@ \$1;
#X obj 106 319 cnv 15 111 24 empty intcolorbg LoadSample 4 12 1 14
-104158 -262144 0;
#X obj 192 321 bng 20 250 50 0 intload NULLR empty 17 7 0 10 -128992
-1 -1;
#X obj 223 319 cnv 15 63 24 empty intcolorbg Save 5 12 1 14 -104158
-262144 0;
#X obj 264 321 bng 20 50 20 0 intsave intsaver empty 17 7 0 10 -128992
-262144 -262144;
#X msg 109 518 load;
#X msg 43 538 select \$1;
#X obj 106 193 cnv 15 56 60 empty intcolorbg empty 4 6 0 10 -104158
-262144 0;
#X obj 168 193 cnv 15 118 60 empty intcolorbg empty 4 6 0 10 -104158
-262144 0;
#X obj 183 211 knob 32 32 1 2000 0 0 intpickup intpickupr Pickup -2
-7 1 11 -1 -262144 -262144 0 1;
#X obj 233 211 knob 32 32 1 3000 0 0 intletdown intletdownr Letdown
-2 -7 1 11 -1 -262144 -262144 0 1;
#X obj 202 259 cnv 15 84 55 empty intcolorbg Release 4 9 1 12 -104158
-262144 0;
#X symbolatom 210 286 9 0 0 0 - intrelfr intrelf;
#X msg 453 34 1;
#X msg 413 34 0;
#X obj 587 169 s intrelfr;
#X msg 587 79 symbol stop;
#X msg 596 99 symbol pause;
#X obj 106 259 cnv 15 90 55 empty intcolorbg ColourGroup 4 9 1 12 -104158
-262144 0;
#X obj 119 285 bng 17 250 50 0 NULL NULLR < 5 8 0 10 -262144 -1 -1
;
#X floatatom 137 285 5 0 0 0 - intcolorr intcolor;
#X obj 119 213 tgl 30 0 intloop intloopr Loop 1 -9 1 13 -99865 -262144
-262144 0 1;
#X obj 165 285 bng 17 250 50 0 NULL NULLR > 5 8 0 10 -262144 -1 -1
;
#X obj 580 492 interfacepadcolor;
#X obj 572 455 r intcolor;
#X msg 109 538 save;
#X msg 607 119 symbol nothing;
#X obj 219 492 r intloop;
#X msg 219 512 loop \$1;
#X obj 221 434 r inttrim;
#X msg 221 455 master \$1;
#X obj 288 434 r intspeed;
#X msg 288 455 playspeed \$1;
#X obj 373 434 r intpickup;
#X msg 373 455 starttime \$1;
#X msg 456 455 stoptime \$1;
#X obj 294 110 cnv 15 196 160 empty empty empty 20 12 0 14 -262144
-66577 0;
#N canvas 0 0 450 300 (subpatch) 0;
#X array SampleL 477696 float 2;
#X coords 0 1 477696 -1 196 160 2 0 0;
#X restore 294 110 graph;
#X obj 102 -203 r rpadsettings;
#X obj 196 -32 s intspeedr;
#X obj 228 -73 s intstop@r;
#X obj 212 -117 s intstart@r;
#X obj 275 9 s intloopr;
#X obj 243 -52 s intpickupr;
#X obj 259 -12 s intletdownr;
#X msg 572 513 color \$1;
#X obj 291 30 s intcolorset;
#X msg 97 478 select 0;
#X obj 456 434 r intletdown;
#X obj 230 127 cnv 15 56 60 empty intcolorbg empty 4 6 0 10 -104158
-262144 0;
#X obj 451 308 bng 30 250 50 0 NULL NULLR Reverse 3 15 1 7 -159808
-159808 -262144;
#X obj 561 342 reversearray;
#X obj 560 300 i;
#X obj 263 286 bng 16 250 50 0 NULL NULLR > 5 8 0 10 -262144 -1 -1
;
#X obj 432 487 r intrelf;
#X msg 496 34 2;
#X msg 560 321 sample\$1L sample\$1R SampleL;
#X obj 415 308 bng 30 250 50 0 empty empty cut 6 15 1 12 -4160 -4160
-262144;
#N canvas 851 206 450 300 color 0;
#X obj 116 127 inlet;
#X obj 80 126 inlet;
#X obj 172 120 r colormax;
#X msg 93 175 inc;
#X msg 121 176 dec;
#X obj 121 225 s intcolorr;
#X obj 121 203 counter 6;
#X obj 210 141 r intcolorset;
#X obj 210 163 pipe 1;
#X connect 0 0 3 0;
#X connect 1 0 4 0;
#X connect 2 0 6 4;
#X connect 3 0 6 0;
#X connect 4 0 6 0;
#X connect 6 0 5 0;
#X connect 7 0 8 0;
#X connect 8 0 6 3;
#X restore 116 417 pd color;
#X obj -53 144 arraycopy SampleL;
#X msg -118 61 \; SampleL resize \$1;
#X obj -118 39 arraysize;
#X msg -118 19 set sample\$1L;
#X msg -53 124 copy sample\$1L;
#X obj -53 104 i;
#X msg -73 -22 bang;
#X obj -73 -3 delay 1;
#X obj -111 98 delay 2;
#X obj -73 -74 r intfiler;
#X obj 243 145 knob 32 32 0.5 2 1 0 intspeed intspeedr Speed -2 -7
1 11 -1 -262144 -262144 0 1;
#X obj 791 380 loadbang;
#X msg 668 444 samplesize \$1;
#X obj 750 508 /~;
#X obj 765 487 sig~;
#X msg 668 415 play;
#X msg 708 413 pause;
#X msg 758 324 stop;
#X obj 779 524 snapshot~;
#X obj 866 464 metro 30;
#X msg 866 443 1;
#X obj 751 552 tabread4~ SampleL;
#X obj 751 573 *~;
#X msg 415 415 resize \, bang;
#X obj 113 -72 s inttitle2r;
#X obj 113 -118 route bang;
#N canvas 354 137 1195 579 save 0;
#X obj 148 266 list;
#X msg 148 245 bang;
#X text 184 244 <- Add new settings;
#X obj 173 449 textfile;
#X obj 360 449 textfile;
#X text 234 448 < Reader;
#X text 303 448 Writer >;
#X msg 64 347 read padsavefile.txt;
#X msg 64 223 bang;
#X text 97 221 <- Process Start;
#X msg 377 419 clear;
#X msg 64 368 rewind;
#X obj 173 423 metro 1;
#X obj 173 404 delay 1;
#X msg 221 404 stop;
#X obj 333 378 route;
#X msg 360 357 \$1;
#X msg 360 398 add \$1 \$2 \$3;
#X text 376 377 <- Filter out old settings;
#X text 439 397 <- Keep settings from other pads;
#X msg 419 419 write padsavefile.txt;
#X obj 648 35 loadbang;
#X text 703 35 <- Load;
#X msg 648 56 read padsavefile.txt;
#X msg 597 101 rewind;
#X obj 699 76 delay 1;
#X obj 699 97 metro 1;
#X msg 749 76 stop;
#X obj 699 122 textfile;
#X obj 699 143 s presetload;
#X obj 446 454 print Save;
#X obj 597 80 delay 1;
#X msg 148 287 add \$1 label \$2 \, add \$1 rfunction \$3 \, add \$1
master \$4 \, add \$1 samplerate \$5 \, add \$1 samplesize \$6 \, add
\$1 playspeed \$7 \, add \$1 start@ \$8 \, add \$1 stop@ \$9 \, add
\$1 starttime \$10 \, add \$1 stoptime \$11 \, add \$1 loop \$12 \,
add \$1 color \$13;
#X obj 744 212 s doneloadingsettings;
#X msg 250 18 19 7 1 \, 29 7 1 \, 39 7 1 \, 49 7 1 \, 59 7 1 \, 69
7 1 \, 79 7 1 \, 89 7 1;
#X obj 437 104 sel 21 31 41 51 61 71 81 88;
#X msg 437 133 19;
#X msg 456 158 29;
#X msg 476 133 39;
#X msg 496 158 49;
#X msg 516 133 59;
#X msg 536 158 69;
#X msg 556 133 79;
#X msg 576 237 19 0 1 \, 29 0 1 \, 39 0 1 \, 49 0 1 \, 59 0 1 \, 69
0 1 \, 79 0 1 \, 89 0 1;
#X msg 330 95 \$1 18 1;
#X obj 831 76 counter 100;
#X msg 878 46 11;
#X obj 831 123 s readsamplenumber;
#X obj 995 127 print DONE LOADING!;
#X obj 1012 150 s doneloading;
#X obj 842 97 sel 89;
#X obj 831 27 metro 5;
#X msg 831 54 inc;
#X msg 803 4 1;
#X msg 834 4 0;
#X obj 803 -16 delay 5;
#X obj 64 147 r savepadsettings;
#X obj 173 198 delay 1;
#X obj 807 165 print;
#X msg 807 144 Loading Pad\$1...;
#X obj 409 226 s noteout;
#X connect 0 0 32 0;
#X connect 1 0 0 0;
#X connect 3 0 15 0;
#X connect 3 1 14 0;
#X connect 3 1 20 0;
#X connect 7 0 3 0;
#X connect 7 0 11 0;
#X connect 8 0 7 0;
#X connect 8 0 10 0;
#X connect 8 0 57 0;
#X connect 10 0 4 0;
#X connect 11 0 3 0;
#X connect 12 0 3 0;
#X connect 13 0 12 0;
#X connect 14 0 12 0;
#X connect 15 1 17 0;
#X connect 16 0 15 1;
#X connect 17 0 4 0;
#X connect 20 0 4 0;
#X connect 20 0 30 0;
#X connect 21 0 23 0;
#X connect 21 0 31 0;
#X connect 23 0 28 0;
#X connect 24 0 28 0;
#X connect 25 0 26 0;
#X connect 26 0 28 0;
#X connect 27 0 26 0;
#X connect 28 0 29 0;
#X connect 28 1 27 0;
#X connect 28 1 33 0;
#X connect 28 1 34 0;
#X connect 28 1 46 0;
#X connect 28 1 55 0;
#X connect 31 0 24 0;
#X connect 31 0 25 0;
#X connect 32 0 4 0;
#X connect 34 0 60 0;
#X connect 35 0 36 0;
#X connect 35 1 37 0;
#X connect 35 1 36 0;
#X connect 35 2 38 0;
#X connect 35 2 36 0;
#X connect 35 2 37 0;
#X connect 35 3 39 0;
#X connect 35 3 36 0;
#X connect 35 3 37 0;
#X connect 35 3 38 0;
#X connect 35 4 40 0;
#X connect 35 4 36 0;
#X connect 35 4 37 0;
#X connect 35 4 38 0;
#X connect 35 4 39 0;
#X connect 35 5 41 0;
#X connect 35 5 36 0;
#X connect 35 5 37 0;
#X connect 35 5 38 0;
#X connect 35 5 39 0;
#X connect 35 5 40 0;
#X connect 35 6 42 0;
#X connect 35 6 36 0;
#X connect 35 6 37 0;
#X connect 35 6 38 0;
#X connect 35 6 39 0;
#X connect 35 6 40 0;
#X connect 35 6 41 0;
#X connect 35 7 43 0;
#X connect 36 0 44 0;
#X connect 37 0 44 0;
#X connect 38 0 44 0;
#X connect 39 0 44 0;
#X connect 40 0 44 0;
#X connect 41 0 44 0;
#X connect 42 0 44 0;
#X connect 43 0 60 0;
#X connect 44 0 60 0;
#X connect 45 0 47 0;
#X connect 45 0 50 0;
#X connect 45 0 59 0;
#X connect 46 0 45 2;
#X connect 50 0 48 0;
#X connect 50 0 49 0;
#X connect 50 0 54 0;
#X connect 50 1 35 0;
#X connect 51 0 52 0;
#X connect 52 0 45 0;
#X connect 53 0 51 0;
#X connect 54 0 51 0;
#X connect 55 0 53 0;
#X connect 56 0 16 0;
#X connect 56 0 0 1;
#X connect 56 0 8 0;
#X connect 57 0 1 0;
#X connect 57 0 13 0;
#X connect 59 0 58 0;
#X restore 789 103 pd save;
#X obj 653 -183 loadbang;
#X obj 499 -142 dsp;
#X msg 499 -162 1;
#X msg 432 511 rfunction symbol \$1;
#X obj 175 139 bng 38 250 50 0 empty empty Scale 4 18 1 12 -13446 -4034
-262144;
#N canvas 751 117 450 492 scale 0;
#X obj -49 59 inlet;
#X text -117 58 Scale bang;
#X obj 48 90 r rpadsettings;
#X obj 64 212 tabread;
#X obj 64 268 tabwrite;
#X msg 82 183 set sample\$1L;
#X obj 119 212 tabread;
#X obj 119 268 tabwrite;
#X msg 171 183 set sample\$1R;
#X obj 64 241 *;
#X obj 119 241 *;
#X obj -49 250 delay 0.001;
#X msg -49 230 stop;
#X msg -10 189 \$6;
#X msg -15 230 bang;
#X obj -49 175 + 1;
#X obj -80 192 i;
#X obj -49 210 sel 1;
#X msg -49 133 -1;
#X obj -49 112 delay 1;
#X obj 27 112 list;
#X obj 144 90 r topad;
#X obj 144 110 route master;
#X obj -31 284 s topad;
#X msg -73 308 bang;
#X obj -73 332 s inttrimrstr;
#X connect 0 0 19 0;
#X connect 0 0 20 0;
#X connect 2 0 20 1;
#X connect 3 0 9 0;
#X connect 5 0 3 0;
#X connect 5 0 4 0;
#X connect 6 0 10 0;
#X connect 8 0 6 0;
#X connect 8 0 7 0;
#X connect 9 0 4 0;
#X connect 10 0 7 0;
#X connect 11 0 16 0;
#X connect 12 0 11 0;
#X connect 13 0 17 1;
#X connect 14 0 11 0;
#X connect 15 0 16 1;
#X connect 15 0 17 0;
#X connect 15 0 3 0;
#X connect 15 0 6 0;
#X connect 15 0 4 1;
#X connect 15 0 7 1;
#X connect 16 0 15 0;
#X connect 17 0 12 0;
#X connect 17 0 23 0;
#X connect 17 0 24 0;
#X connect 17 1 14 0;
#X connect 18 0 15 0;
#X connect 19 0 18 0;
#X connect 20 0 8 0;
#X connect 20 0 5 0;
#X connect 20 0 13 0;
#X connect 21 0 22 0;
#X connect 22 0 9 1;
#X connect 22 0 10 1;
#X connect 24 0 25 0;
#X restore 7 210 pd scale;
#X obj 107 106 bng 15 250 50 0 intrenamebang intrenamebangr R 4 7 0
10 -1 -262144 -262144;
#N canvas 361 103 814 512 rename 0;
#X obj 59 -4 r intrenamebang;
#X obj 67 126 metro 500;
#X obj 67 147 s intrenamebangr;
#X msg 112 59 1;
#X msg 140 59 0;
#X obj 67 102 tgl 15 0 empty empty empty 17 7 0 10 -262144 -1 -1 0
1;
#X obj 67 82 spigot 1;
#X obj 59 60 delay 1;
#X obj 214 -31 keyname;
#X obj 244 92 spigot;
#X obj 279 70 symbol;
#X obj 279 49 delay 1;
#X obj 244 218 list;
#X msg 265 175 symbol;
#X msg 244 153 bang;
#X msg 241 281 .;
#X msg 241 257 set \$2\$1;
#X obj 244 113 sel BackSpace Delete Return Shift_L Shift_R Caps_Lock
Left Right Up Down Control_L Space;
#X obj 275 197 symbol;
#X obj 172 237 route symbol;
#X msg 172 257 set;
#X obj 241 303 symbol;
#X obj 241 325 outlet;
#X msg 279 9 bang;
#X obj 279 29 spigot;
#X msg 393 197 bang;
#X msg 149 279 symbol;
#X obj 293 151 sel 1;
#X connect 0 0 3 0;
#X connect 0 0 7 0;
#X connect 1 0 2 0;
#X connect 1 0 4 0;
#X connect 3 0 6 1;
#X connect 4 0 6 1;
#X connect 5 0 1 0;
#X connect 5 0 24 1;
#X connect 5 0 27 0;
#X connect 6 0 5 0;
#X connect 7 0 6 0;
#X connect 8 0 9 1;
#X connect 8 1 10 1;
#X connect 8 1 23 0;
#X connect 9 0 17 0;
#X connect 10 0 9 0;
#X connect 11 0 10 0;
#X connect 12 0 19 0;
#X connect 13 0 12 1;
#X connect 14 0 12 0;
#X connect 15 0 18 0;
#X connect 15 0 21 0;
#X connect 16 0 15 0;
#X connect 17 0 13 0;
#X connect 17 0 14 0;
#X connect 17 1 13 0;
#X connect 17 1 14 0;
#X connect 17 2 3 0;
#X connect 17 2 7 0;
#X connect 17 12 12 0;
#X connect 17 12 25 0;
#X connect 18 0 12 1;
#X connect 19 0 20 0;
#X connect 19 0 26 0;
#X connect 19 1 16 0;
#X connect 20 0 15 0;
#X connect 21 0 22 0;
#X connect 23 0 24 0;
#X connect 24 0 11 0;
#X connect 25 0 15 0;
#X connect 26 0 22 0;
#X connect 27 0 14 0;
#X connect 27 0 13 0;
#X restore 3 236 pd rename;
#X msg 3 265 label \$1;
#X obj 3 287 s inttitle2r;
#X msg 113 -95 label Pad;
#X msg 182 -94 label \$1;
#X obj 751 661 s~ monoout;
#N canvas 0 0 1362 692 cut 0;
#X obj 97 37 inlet;
#X obj 195 421 outlet;
#X obj 381 142 r intstop@;
#X obj 370 94 r intstart@;
#X obj 97 60 route bang;
#X obj 370 174 -;
#X obj 370 116 t b f;
#X obj 97 284 arraycopy;
#X obj 97 187 i;
#X obj 260 94 arraysize SampleL;
#X obj 260 129 *;
#X obj 97 167 delay 1;
#X obj 177 192 i;
#X msg 177 151 bang;
#X obj 177 171 delay 1;
#X msg 228 237 symbol sample\$1L;
#X obj 355 195 *;
#X obj 358 243 delay 1;
#X msg 358 222 bang;
#X obj 358 264 i;
#X obj 358 285 pack f f;
#X msg 195 293 symbol SampleL;
#X msg 195 359 copy sample\$1L;
#X msg 195 314 bang;
#X obj 195 335 i;
#X obj 364 409 s intstop@r;
#X msg 283 387 0;
#X msg 364 388 0.999;
#X msg 243 261 symbol sample\$1R;
#X obj 262 161 i;
#X obj 283 409 s intstart@r;
#X obj 403 212 i;
#X msg 358 310 \; sample\$1L resize \$2 \; sample\$1R resize \$2 \;
SampleL resize \$2;
#X obj 177 213 pack f f;
#X msg 97 237 copy sample\$1L \$2;
#X msg 112 260 copy sample\$1R \$2;
#X obj 97 209 pack f f;
#X msg 195 381 bang;
#X obj 195 401 delay 1;
#X connect 0 0 4 0;
#X connect 2 0 5 0;
#X connect 3 0 6 0;
#X connect 3 0 10 1;
#X connect 4 0 11 0;
#X connect 4 0 9 0;
#X connect 4 1 8 1;
#X connect 4 1 19 1;
#X connect 4 1 24 1;
#X connect 4 1 12 1;
#X connect 5 0 16 1;
#X connect 6 0 5 0;
#X connect 6 1 5 1;
#X connect 8 0 15 0;
#X connect 8 0 36 0;
#X connect 9 0 10 0;
#X connect 9 0 16 0;
#X connect 10 0 29 0;
#X connect 11 0 8 0;
#X connect 12 0 28 0;
#X connect 12 0 33 0;
#X connect 13 0 14 0;
#X connect 14 0 12 0;
#X connect 15 0 7 1;
#X connect 16 0 31 0;
#X connect 17 0 19 0;
#X connect 18 0 17 0;
#X connect 18 0 21 0;
#X connect 19 0 20 0;
#X connect 20 0 32 0;
#X connect 21 0 7 1;
#X connect 21 0 23 0;
#X connect 22 0 7 0;
#X connect 22 0 26 0;
#X connect 22 0 27 0;
#X connect 22 0 37 0;
#X connect 23 0 24 0;
#X connect 24 0 22 0;
#X connect 26 0 30 0;
#X connect 27 0 25 0;
#X connect 28 0 7 1;
#X connect 29 0 33 1;
#X connect 29 0 36 1;
#X connect 31 0 20 1;
#X connect 33 0 35 0;
#X connect 34 0 7 0;
#X connect 34 0 13 0;
#X connect 35 0 7 0;
#X connect 35 0 18 0;
#X connect 36 0 34 0;
#X connect 37 0 38 0;
#X connect 38 0 1 0;
#X restore 415 395 pd cut;
#X obj 105 348 cnv 15 340 22 empty intcolorbg Samplerate: 4 12 1 14
-104158 -262144 0;
#X obj 449 347 cnv 15 44 22 empty intcolorbg empty 2 6 1 9 -104158
-262144 0;
#X obj 460 347 tgl 22 0 empty empty Autosave -10 11 1 10 -33289 -262144
-262144 0 1;
#N canvas 801 280 450 300 autosave 0;
#X obj 53 36 r intanything;
#X obj 53 103 delay 1000;
#X obj 139 36 inlet;
#X obj 53 73 spigot;
#X obj 139 56 sel 0;
#X msg 139 76 stop;
#X obj 53 222 s intsaver;
#X msg 156 102 color 11;
#X msg 3 150 color 14;
#X msg 72 150 color 16;
#X msg 181 75 bang;
#X msg 184 141 0;
#X msg 217 140 1;
#X obj 184 171 delay 5;
#X connect 0 0 3 0;
#X connect 1 0 6 0;
#X connect 1 0 9 0;
#X connect 1 0 11 0;
#X connect 1 0 13 0;
#X connect 2 0 3 1;
#X connect 2 0 4 0;
#X connect 3 0 1 0;
#X connect 3 0 8 0;
#X connect 4 0 5 0;
#X connect 4 0 7 0;
#X connect 4 1 10 0;
#X connect 5 0 1 0;
#X connect 7 0 6 0;
#X connect 8 0 6 0;
#X connect 9 0 6 0;
#X connect 10 0 3 0;
#X connect 11 0 3 1;
#X connect 11 0 5 0;
#X connect 12 0 3 1;
#X connect 13 0 12 0;
#X restore 256 399 pd autosave;
#X obj 253 583 s intanything;
#X msg 253 563 bang;
#X obj 102 -180 unpack f s s f f f f f f f f f f;
#X obj 271 173 bng 15 250 50 0 NULL NULLR R 4 7 0 10 -162280 -162280
-262144;
#X msg 246 63 1;
#X floatatom 191 351 10 0 0 0 - - -;
#X msg 791 402 samplerate 44100;
#X msg 705 361 samplerate \$1;
#X obj 751 638 *~;
#X obj 781 622 vline~;
#X msg 781 601 1 1;
#X msg 610 208 color 11;
#X obj 261 352 bng 15 250 50 0 empty empty 44.1k 17 7 1 10 -262144
-1 -1;
#X obj 314 352 bng 15 250 50 0 empty empty 48k 17 7 0 10 -262144 -1
-1;
#X msg -60 449 samplerate \$1;
#X msg -38 403 48000;
#X msg -80 403 44100;
#X obj 107 172 bng 15 250 50 0 NULL inttrimrstr R 4 7 0 10 -162280
-162280 -262144;
#X msg 45 91 1;
#X msg 807 601 0 1;
#X msg 865 563 stop;
#X obj 865 584 delay 1000;
#X msg 611 145 symbol altstop;
#X obj 574 56 sel 0 1 2 3;
#X obj 360 68 counter 3;
#X obj 413 12 sel stop pause nothing altstop;
#X msg 538 35 3;
#X obj 750 465 trackbarV2;
#N canvas 1249 279 450 300 globalbuttons 0;
#X obj 48 26 r globalmidi;
#X obj 48 54 route 19 29 39 49 59 69 79 89;
#N canvas 716 259 450 300 stop 0;
#X obj 89 27 inlet;
#X obj 89 70 sel 0;
#X msg 116 90 hardstop;
#X obj 116 111 s global;
#X obj 54 170 outlet;
#X msg 54 116 49 7 1;
#X msg 85 140 49 5 1;
#X obj -29 45 r doneloading;
#X connect 0 0 1 0;
#X connect 1 0 5 0;
#X connect 1 1 2 0;
#X connect 1 1 6 0;
#X connect 2 0 3 0;
#X connect 5 0 4 0;
#X connect 6 0 4 0;
#X connect 7 0 5 0;
#X restore 112 83 pd stop;
#N canvas 409 0 944 700 copy 0;
#X obj 76 -50 inlet;
#X obj 33 496 outlet;
#X obj 52 147 tgl 15 0 empty empty empty 17 7 0 10 -262144 -1 -1 0
1;
#X obj 52 122 metro 400;
#X msg 27 93 1;
#X msg 60 94 0;
#X obj 33 426 sel 0 1;
#X msg 61 452 69 0 1;
#X obj 184 69 gate;
#X obj 248 186 gate;
#X msg 228 165 1;
#X msg 254 165 0;
#X obj 146 396 list;
#X msg 146 336 \$1;
#X obj 146 532 s presetload;
#X obj 227 337 i;
#X obj 227 358 pack f f;
#X msg 272 337 \$1;
#X msg 227 294 bang;
#X msg 539 399 \; sample\$1L read samples/recent/sample\$2L.txt \;
sample\$1R read samples/recent/sample\$2R.txt;
#X obj 76 24 tgl 15 0 empty empty empty 17 7 0 10 -262144 -1 -1 0 1
;
#X obj 68 55 sel 1 0;
#X msg 119 25 0;
#X msg 33 475 69 1 1;
#X msg 122 120 0;
#X obj 68 -28 sel 0;
#X msg 87 0 bang;
#X obj 227 52 r copyr;
#X obj 195 0 s copy;
#X msg 173 -30 bang;
#X msg 207 -30 done;
#X msg 153 69 0;
#X msg 204 96 bang;
#X obj 214 124 delay 1;
#X msg 386 485 \$1 \$14;
#X obj 466 517 list;
#X msg 466 476 bang;
#X msg 466 537 \$1 color \$2;
#X msg 146 417 \$1 label \$3 \, \$1 rfunction \$4 \, \$1 master \$5
\, \$1 samplerate \$6 \, \$1 samplesize \$7 \, \$1 playspeed \$8 \,
\$1 start@ \$9 \, \$1 stop@ \$10 \, \$1 starttime \$11 \, \$1 stoptime
\$12 \, \$1 loop \$13;
#X obj 466 496 delay 500;
#X obj 227 315 delay 5;
#X obj 304 -6 r doneloading;
#X msg 394 600 \$1 save;
#X obj 394 579 i;
#X msg 461 570 bang;
#X obj 461 591 delay 1;
#X obj 549 590 s intsave;
#X connect 0 0 25 0;
#X connect 2 0 6 0;
#X connect 3 0 2 0;
#X connect 4 0 3 0;
#X connect 4 0 8 0;
#X connect 5 0 3 0;
#X connect 5 0 8 0;
#X connect 6 0 23 0;
#X connect 6 1 7 0;
#X connect 7 0 1 0;
#X connect 8 0 12 1;
#X connect 8 0 17 0;
#X connect 8 0 31 0;
#X connect 8 0 32 0;
#X connect 9 0 13 0;
#X connect 10 0 9 0;
#X connect 11 0 9 0;
#X connect 12 0 38 0;
#X connect 12 0 34 0;
#X connect 13 0 12 0;
#X connect 13 0 15 1;
#X connect 13 0 18 0;
#X connect 13 0 43 1;
#X connect 15 0 16 0;
#X connect 16 0 19 0;
#X connect 16 0 36 0;
#X connect 17 0 16 1;
#X connect 18 0 22 0;
#X connect 18 0 40 0;
#X connect 20 0 21 0;
#X connect 20 0 24 0;
#X connect 21 0 4 0;
#X connect 21 0 11 0;
#X connect 21 0 29 0;
#X connect 21 1 5 0;
#X connect 21 1 11 0;
#X connect 21 1 30 0;
#X connect 22 0 20 0;
#X connect 23 0 1 0;
#X connect 24 0 2 0;
#X connect 25 1 26 0;
#X connect 26 0 20 0;
#X connect 27 0 8 1;
#X connect 27 0 9 1;
#X connect 29 0 28 0;
#X connect 30 0 28 0;
#X connect 31 0 8 0;
#X connect 32 0 33 0;
#X connect 33 0 10 0;
#X connect 34 0 35 1;
#X connect 35 0 37 0;
#X connect 36 0 39 0;
#X connect 37 0 14 0;
#X connect 37 0 44 0;
#X connect 38 0 14 0;
#X connect 39 0 35 0;
#X connect 40 0 15 0;
#X connect 41 0 11 0;
#X connect 41 0 22 0;
#X connect 42 0 14 0;
#X connect 43 0 42 0;
#X connect 44 0 45 0;
#X connect 45 0 43 0;
#X connect 45 0 46 0;
#X restore 142 116 pd copy;
#N canvas 0 0 1366 686 move 0;
#X obj 76 -50 inlet;
#X obj 33 496 outlet;
#X obj 52 147 tgl 15 0 empty empty empty 17 7 0 10 -262144 -1 -1 0
1;
#X obj 52 122 metro 400;
#X msg 27 93 1;
#X msg 60 94 0;
#X obj 33 426 sel 0 1;
#X obj 184 69 gate;
#X obj 248 186 gate;
#X msg 228 165 1;
#X msg 254 165 0;
#X obj 146 396 list;
#X msg 146 336 \$1;
#X obj 160 692 s presetload;
#X obj 227 337 i;
#X obj 227 358 pack f f;
#X msg 272 337 \$1;
#X msg 227 294 bang;
#X msg 539 399 \; sample\$1L read samples/recent/sample\$2L.txt \;
sample\$1R read samples/recent/sample\$2R.txt;
#X obj 76 24 tgl 15 0 empty empty empty 17 7 0 10 -262144 -1 -1 0 1
;
#X obj 68 55 sel 1 0;
#X msg 119 25 0;
#X msg 122 120 0;
#X obj 68 -28 sel 0;
#X msg 87 0 bang;
#X obj 227 52 r copyr;
#X obj 195 0 s copy;
#X msg 173 -30 bang;
#X msg 207 -30 done;
#X msg 153 69 0;
#X msg 204 96 bang;
#X obj 214 124 delay 1;
#X msg 520 558 \$1 \$14;
#X obj 595 588 list;
#X msg 595 547 bang;
#X msg 595 608 \$1 color \$2;
#X obj 595 567 delay 500;
#X obj 227 315 delay 5;
#X obj 304 -6 r doneloading;
#X msg 33 475 59 1 1;
#X msg 61 452 59 0 1;
#X msg 486 634 bang;
#X obj 486 655 delay 1;
#X msg 116 336 \$1;
#X obj 227 574 pack f f;
#X obj 419 643 list;
#X msg 370 665 \$1 save \, \$2 save;
#X msg 160 444 \$1 label \$3 \, \$1 rfunction \$4 \, \$1 master \$5
\, \$1 samplerate \$6 \, \$1 samplesize \$7 \, \$1 playspeed \$8 \,
\$1 start@ \$9 \, \$1 stop@ \$10 \, \$1 starttime \$11 \, \$1 stoptime
\$12 \, \$1 loop \$13 \, \$2 label . \, \$2 rfunction altstop \, \$2
master 1 \, \$2 samplerate 0 \, \$2 samplesize 100 \, \$2 playspeed
1 \, \$2 start@ 0 \, \$2 stop@ 0.999 \, \$2 starttime 1 \, \$2 stoptime
1 \, \$2 loop 0 \, \$2 color 0;
#X obj 660 660 s delete;
#X msg 660 640 \$2;
#X connect 0 0 23 0;
#X connect 2 0 6 0;
#X connect 3 0 2 0;
#X connect 4 0 3 0;
#X connect 4 0 7 0;
#X connect 5 0 3 0;
#X connect 5 0 7 0;
#X connect 6 0 39 0;
#X connect 6 1 40 0;
#X connect 7 0 11 1;
#X connect 7 0 16 0;
#X connect 7 0 29 0;
#X connect 7 0 30 0;
#X connect 7 0 43 0;
#X connect 8 0 12 0;
#X connect 9 0 8 0;
#X connect 10 0 8 0;
#X connect 11 0 32 0;
#X connect 11 0 47 0;
#X connect 11 0 49 0;
#X connect 12 0 11 0;
#X connect 12 0 14 1;
#X connect 12 0 17 0;
#X connect 12 0 45 1;
#X connect 12 0 44 0;
#X connect 14 0 15 0;
#X connect 15 0 18 0;
#X connect 15 0 34 0;
#X connect 16 0 15 1;
#X connect 17 0 21 0;
#X connect 17 0 37 0;
#X connect 19 0 20 0;
#X connect 19 0 22 0;
#X connect 20 0 4 0;
#X connect 20 0 10 0;
#X connect 20 0 27 0;
#X connect 20 1 5 0;
#X connect 20 1 10 0;
#X connect 20 1 28 0;
#X connect 21 0 19 0;
#X connect 22 0 2 0;
#X connect 23 1 24 0;
#X connect 24 0 19 0;
#X connect 25 0 7 1;
#X connect 25 0 8 1;
#X connect 27 0 26 0;
#X connect 28 0 26 0;
#X connect 29 0 7 0;
#X connect 30 0 31 0;
#X connect 31 0 9 0;
#X connect 32 0 33 1;
#X connect 33 0 35 0;
#X connect 34 0 36 0;
#X connect 35 0 13 0;
#X connect 35 0 41 0;
#X connect 36 0 33 0;
#X connect 37 0 14 0;
#X connect 38 0 10 0;
#X connect 38 0 21 0;
#X connect 39 0 1 0;
#X connect 40 0 1 0;
#X connect 41 0 42 0;
#X connect 42 0 45 0;
#X connect 43 0 44 1;
#X connect 44 0 45 1;
#X connect 45 0 46 0;
#X connect 46 0 13 0;
#X connect 47 0 13 0;
#X connect 49 0 48 0;
#X restore 133 146 pd move;
#N canvas 0 0 1370 700 duck 0;
#X obj 185 69 inlet;
#X obj 155 388 outlet;
#X obj 244 337 s audioduck;
#X msg 298 309 1 100;
#X msg 151 354 89 \$1 1;
#X msg 151 323 19;
#X obj 105 264 r doneloading;
#X obj 185 92 sel 0;
#X msg 245 223 bang;
#X msg 212 187 bang;
#X obj 146 157 spigot;
#X obj 212 163 gate 2;
#X msg 199 124 1;
#X msg 266 87 2;
#X msg 131 124 0;
#X floatatom 266 166 5 0 0 0 - - -;
#X msg 266 43 stop;
#X obj 266 66 delay 200;
#X msg 188 324 11;
#X obj 362 282 loadbang;
#X msg 362 307 1 0;
#X msg 243 310 0.33 300;
#X connect 0 0 7 0;
#X connect 3 0 2 0;
#X connect 4 0 1 0;
#X connect 5 0 4 0;
#X connect 6 0 5 0;
#X connect 6 0 12 0;
#X connect 6 0 14 0;
#X connect 7 0 10 0;
#X connect 7 1 11 1;
#X connect 8 0 5 0;
#X connect 8 0 3 0;
#X connect 8 0 12 0;
#X connect 8 0 16 0;
#X connect 8 0 14 0;
#X connect 9 0 21 0;
#X connect 9 0 18 0;
#X connect 9 0 17 0;
#X connect 10 0 8 0;
#X connect 11 0 9 0;
#X connect 11 1 8 0;
#X connect 12 0 11 0;
#X connect 12 0 15 0;
#X connect 13 0 11 0;
#X connect 13 0 15 0;
#X connect 13 0 10 1;
#X connect 14 0 10 1;
#X connect 16 0 17 0;
#X connect 17 0 13 0;
#X connect 18 0 4 0;
#X connect 19 0 20 0;
#X connect 20 0 2 0;
#X connect 21 0 2 0;
#X restore 232 137 pd duck;
#X obj 53 224 s noteout;
#X connect 0 0 1 0;
#X connect 1 3 2 0;
#X connect 1 4 4 0;
#X connect 1 5 3 0;
#X connect 1 7 5 0;
#X connect 2 0 6 0;
#X connect 3 0 6 0;
#X connect 4 0 6 0;
#X connect 5 0 6 0;
#X restore 789 83 pd globalbuttons;
#X obj 583 -162 delay 2000;
#X connect 4 0 2 0;
#X connect 6 0 93 0;
#X connect 6 0 133 0;
#X connect 6 0 143 0;
#X connect 7 0 94 0;
#X connect 7 0 144 0;
#X connect 8 0 95 0;
#X connect 8 0 144 0;
#X connect 16 0 17 0;
#X connect 16 0 124 0;
#X connect 17 0 15 0;
#X connect 17 0 150 0;
#X connect 18 0 19 0;
#X connect 18 0 124 0;
#X connect 19 0 15 0;
#X connect 19 0 150 0;
#X connect 21 0 24 0;
#X connect 23 0 44 0;
#X connect 24 0 15 0;
#X connect 25 0 15 0;
#X connect 32 0 147 3;
#X connect 33 0 147 3;
#X connect 35 0 34 0;
#X connect 36 0 34 0;
#X connect 38 0 77 0;
#X connect 41 0 77 1;
#X connect 43 0 42 0;
#X connect 43 0 64 0;
#X connect 43 0 124 0;
#X connect 44 0 15 0;
#X connect 45 0 34 0;
#X connect 46 0 47 0;
#X connect 46 0 124 0;
#X connect 47 0 15 0;
#X connect 47 0 150 0;
#X connect 48 0 49 0;
#X connect 48 0 100 1;
#X connect 48 0 124 0;
#X connect 49 0 15 0;
#X connect 50 0 51 0;
#X connect 50 0 124 0;
#X connect 51 0 15 0;
#X connect 51 0 150 0;
#X connect 52 0 53 0;
#X connect 52 0 124 0;
#X connect 53 0 15 0;
#X connect 53 0 150 0;
#X connect 54 0 15 0;
#X connect 54 0 150 0;
#X connect 57 0 125 0;
#X connect 64 0 15 0;
#X connect 66 0 15 0;
#X connect 67 0 54 0;
#X connect 67 0 124 0;
#X connect 67 0 144 1;
#X connect 69 0 71 0;
#X connect 71 0 75 0;
#X connect 72 0 147 0;
#X connect 73 0 108 0;
#X connect 73 0 124 0;
#X connect 74 0 147 3;
#X connect 75 0 70 0;
#X connect 76 0 118 0;
#X connect 80 0 79 0;
#X connect 80 0 90 0;
#X connect 80 0 92 0;
#X connect 81 0 80 0;
#X connect 82 0 78 0;
#X connect 83 0 82 0;
#X connect 84 0 85 0;
#X connect 85 0 80 0;
#X connect 85 0 86 0;
#X connect 86 0 83 0;
#X connect 87 0 84 0;
#X connect 89 0 129 0;
#X connect 89 0 98 0;
#X connect 90 0 150 0;
#X connect 91 0 96 0;
#X connect 92 0 91 1;
#X connect 93 0 150 0;
#X connect 94 0 150 0;
#X connect 95 0 150 0;
#X connect 96 0 11 0;
#X connect 97 0 96 0;
#X connect 98 0 97 0;
#X connect 99 0 100 0;
#X connect 100 0 131 0;
#X connect 101 0 15 0;
#X connect 103 0 115 0;
#X connect 103 1 116 0;
#X connect 105 0 134 0;
#X connect 105 0 152 0;
#X connect 107 0 106 0;
#X connect 108 0 15 0;
#X connect 109 0 110 0;
#X connect 112 0 113 0;
#X connect 112 0 124 0;
#X connect 113 0 15 0;
#X connect 113 0 114 0;
#X connect 115 0 102 0;
#X connect 116 0 102 0;
#X connect 118 0 101 0;
#X connect 118 0 124 0;
#X connect 121 0 122 0;
#X connect 124 0 123 0;
#X connect 125 0 84 0;
#X connect 125 0 81 0;
#X connect 125 0 83 1;
#X connect 125 0 25 0;
#X connect 125 0 4 0;
#X connect 125 0 71 1;
#X connect 125 0 118 0;
#X connect 125 1 103 0;
#X connect 125 2 148 0;
#X connect 125 3 14 0;
#X connect 125 4 128 0;
#X connect 125 4 130 0;
#X connect 125 6 58 0;
#X connect 125 7 60 0;
#X connect 125 8 59 0;
#X connect 125 9 62 0;
#X connect 125 10 63 0;
#X connect 125 11 61 0;
#X connect 125 12 65 0;
#X connect 125 12 66 0;
#X connect 126 0 127 0;
#X connect 127 0 88 0;
#X connect 129 0 150 0;
#X connect 130 0 150 0;
#X connect 131 0 117 0;
#X connect 132 0 131 1;
#X connect 133 0 132 0;
#X connect 134 0 23 0;
#X connect 135 0 139 0;
#X connect 136 0 138 0;
#X connect 137 0 15 0;
#X connect 137 0 124 0;
#X connect 138 0 137 0;
#X connect 138 0 130 0;
#X connect 138 0 128 0;
#X connect 139 0 137 0;
#X connect 139 0 130 0;
#X connect 139 0 128 0;
#X connect 140 0 141 0;
#X connect 141 0 13 0;
#X connect 142 0 132 0;
#X connect 143 0 144 0;
#X connect 144 0 142 0;
#X connect 145 0 34 0;
#X connect 146 0 35 0;
#X connect 146 1 36 0;
#X connect 146 2 45 0;
#X connect 146 3 145 0;
#X connect 147 0 146 0;
#X connect 148 0 33 0;
#X connect 148 1 32 0;
#X connect 148 2 74 0;
#X connect 148 3 149 0;
#X connect 148 4 34 0;
#X connect 149 0 147 3;
#X connect 150 0 91 0;
#X connect 150 0 99 0;
#X connect 150 1 142 0;
#X connect 152 0 107 0;
#X coords 0 -1 1 1 400 275 1 100 100;
