#N canvas 0 0 1362 692 10;
#X obj 100 100 cnv 10 400 250 empty empty empty 5 12 0 14 -33289 -66577
0;
#X obj 106 106 cnv 15 180 15 empty intcolorbg Pad: 5 8 1 14 -160262
-262144 0;
#X obj 120 79 s inttitler;
#X obj 261 106 cnv 15 25 15 empty inttitler 88. 5 8 1 14 -33289 -262144
0;
#X msg 120 59 label \$1.;
#X obj 291 106 cnv 10 202 237 empty intcolorbg empty 20 12 0 14 -160262
-262144 0;
#X obj 307 308 bng 30 250 50 0 empty empty play 4 15 1 12 -4034 -4034
-262144;
#X obj 343 308 bng 30 250 50 0 empty empty pause 4 15 1 9 -260097 -260097
-262144;
#X obj 379 308 bng 30 250 50 0 empty empty stop 4 15 1 12 -258113 -258113
-262144;
#X obj 295 275 hsl 195 8 0 0.999 0 0 intstart@ intstart@r empty -2
-8 0 10 -1 -4034 -1 0 1;
#X obj 295 295 hsl 195 8 0 0.999 0 0 intstop@ intstop@r empty -2 -8
0 10 -1 -258113 -1 19400 1;
#X obj 295 285 hsl 195 8 0 1 0 0 NULL NULLR empty -2 -8 0 10 -1 -262144
-1 10419 1;
#X obj 106 127 cnv 15 56 60 empty intcolorbg empty 4 6 0 10 -160262
-262144 0;
#X obj 118 144 knob 32 32 0.25 4 1 0 inttrim inttrimr Trim 3 -7 1 11
-1 -262144 -262144 0 1;
#X obj 275 21 s inttrimr;
#X obj 108 501 s topad;
#X obj 281 432 r intstart@;
#X msg 281 452 start@ \$1;
#X obj 353 432 r intstop@;
#X msg 353 452 stop@ \$1;
#X obj 106 319 cnv 15 111 24 empty intcolorbg LoadSample 4 12 1 14
-160262 -262144 0;
#X obj 192 321 bng 20 250 50 0 intload NULLR empty 17 7 0 10 -128992
-1 -1;
#X obj 223 319 cnv 15 63 24 empty intcolorbg Save 5 12 1 14 -160262
-262144 0;
#X obj 264 321 bng 20 250 50 0 intsave NULLR empty 17 7 0 10 -128992
-1 -1;
#X msg 109 458 load;
#X msg 43 478 select \$1;
#X obj 106 193 cnv 15 56 60 empty intcolorbg empty 4 6 0 10 -160262
-262144 0;
#X obj 168 193 cnv 15 118 60 empty intcolorbg empty 4 6 0 10 -160262
-262144 0;
#X obj 183 211 knob 32 32 1 1000 0 0 intpickup intpickupr Pickup -2
-7 1 11 -1 -262144 -262144 1000 1;
#X obj 233 211 knob 32 32 1 1000 0 0 intletdown intletdownr Letdown
-2 -7 1 11 -1 -262144 -262144 1000 1;
#X obj 202 259 cnv 15 84 55 empty intcolorbg Release 4 9 1 12 -160262
-262144 0;
#X symbolatom 210 286 9 0 0 0 - intrelfr intrelf;
#X msg 425 25 1;
#X msg 385 25 0;
#X obj 545 102 s intrelfr;
#X msg 545 42 symbol stop;
#X msg 554 62 symbol pause;
#X obj 106 259 cnv 15 90 55 empty intcolorbg ColourGroup 4 9 1 12 -160262
-262144 0;
#X obj 119 285 bng 17 250 50 0 NULL NULLR < 5 8 0 10 -262144 -1 -1
;
#X obj 102 -83 unpack f f f f f f f s f f s f f;
#X floatatom 137 285 5 0 0 0 - intcolorr intcolor;
#X obj 168 127 cnv 15 56 60 empty intcolorbg empty 4 6 0 10 -160262
-262144 0;
#X obj 119 213 tgl 30 0 intloop intloopr Loop 1 -9 1 13 -99865 -262144
-262144 1 1;
#X obj 165 285 bng 17 250 50 0 NULL NULLR > 5 8 0 10 -262144 -1 -1
;
#X obj 580 432 interfacepadcolor;
#X obj 572 406 r intcolor;
#X msg 109 478 save;
#X obj 360 68 counter 2;
#X obj 532 19 sel 0 1 2;
#X msg 565 82 symbol nothing;
#X obj 219 432 r intloop;
#X msg 219 452 loop \$1;
#X obj 221 374 r inttrim;
#X msg 221 395 master \$1;
#X obj 288 374 r intspeed;
#X msg 288 395 playspeed \$1;
#X obj 373 374 r intpickup;
#X msg 373 395 starttime \$1;
#X msg 456 395 stoptime \$1;
#X obj 294 110 cnv 15 196 160 empty empty empty 20 12 0 14 -262144
-66577 0;
#N canvas 0 0 450 300 (subpatch) 0;
#X array SampleL 3600 float 2;
#X coords 0 1 3600 -1 196 160 2 0 0;
#X restore 294 110 graph;
#X obj 102 -103 r rpadsettings;
#X obj 149 -10 s intspeedr;
#X obj 180 32 s intstop@r;
#X obj 165 10 s intstart@r;
#X obj 197 53 s intloopr;
#X obj 228 74 s intpickupr;
#X obj 243 -11 s intletdownr;
#X msg 572 453 color \$1;
#X obj 293 42 s intcolorset;
#X msg 97 418 select 0;
#X obj 456 374 r intletdown;
#X obj 230 127 cnv 15 56 60 empty intcolorbg empty 4 6 0 10 -160262
-262144 0;
#X obj 451 308 bng 30 250 50 0 NULL NULLR Reverse 3 15 1 7 -159808
-159808 -262144;
#X obj 561 342 reversearray;
#X obj 560 300 i;
#X obj 263 286 bng 16 250 50 0 NULL NULLR > 5 8 0 10 -262144 -1 -1
;
#X obj 541 376 r intrelf;
#X obj 487 433 r intrelf;
#X msg 487 453 rfunction \$1;
#X obj 385 3 sel stop pause nothing;
#X msg 468 25 2;
#X msg 560 321 sample\$1L sample\$1R SampleL;
#X obj 415 308 bng 30 250 50 0 empty empty cut 6 15 1 12 -4160 -4160
-262144;
#N canvas 851 206 450 300 color 0;
#X obj 116 127 inlet;
#X obj 80 126 inlet;
#X obj 172 120 r colormax;
#X msg 93 175 inc;
#X msg 121 176 dec;
#X obj 121 225 s intcolorr;
#X obj 121 203 counter 6;
#X obj 210 141 r intcolorset;
#X obj 210 163 pipe 1;
#X connect 0 0 3 0;
#X connect 1 0 4 0;
#X connect 2 0 6 4;
#X connect 3 0 6 0;
#X connect 4 0 6 0;
#X connect 6 0 5 0;
#X connect 7 0 8 0;
#X connect 8 0 6 3;
#X restore 116 357 pd color;
#X obj -53 144 arraycopy SampleL;
#X msg -118 61 \; SampleL resize \$1;
#X obj -118 39 arraysize;
#X msg -118 19 set sample\$1L;
#X msg -53 124 copy sample\$1L;
#X obj -53 104 i;
#X msg -73 -22 bang;
#X obj -73 -3 delay 1;
#X obj -111 98 delay 2;
#X obj 1106 124 r intstop@;
#X obj 1095 76 r intstart@;
#X obj 813 7 route bang;
#X obj 1095 156 -;
#X obj 1095 98 t b f;
#X obj 822 266 arraycopy;
#X obj 822 169 i;
#X obj 985 76 arraysize SampleL;
#X obj 985 111 *;
#X obj 822 149 delay 1;
#X obj 902 174 i;
#X msg 902 133 bang;
#X obj 902 153 delay 1;
#X msg 953 219 symbol sample\$1L;
#X obj 1080 177 *;
#X obj 1083 225 delay 1;
#X msg 1083 204 bang;
#X obj 1083 246 i;
#X obj 1083 267 pack f f;
#X msg 920 275 symbol SampleL;
#X msg 920 341 copy sample\$1L;
#X msg 920 296 bang;
#X obj 920 317 i;
#X obj 1121 448 s intstop@r;
#X msg 1036 426 0;
#X msg 1121 427 0.999;
#X msg 968 243 symbol sample\$1R;
#X obj 987 143 i;
#X obj 1036 448 s intstart@r;
#X obj 1128 194 i;
#X msg 1083 292 \; sample\$1L resize \$2 \; sample\$1R resize \$2 \;
SampleL resize \$2;
#X obj -73 -74 r intfiler;
#X obj 902 195 pack f f;
#X msg 822 219 copy sample\$1L \$2;
#X msg 837 242 copy sample\$1R \$2;
#X obj 822 191 pack f f;
#X obj 180 144 knob 32 32 0.5 2 1 0 intspeed intspeedr Speed -2 -7
1 11 -1 -262144 -262144 1550 1;
#X obj 750 353 loadbang;
#X msg 668 384 samplesize \$1;
#X obj 750 448 /~;
#X obj 765 427 sig~;
#X msg 668 355 play;
#X msg 708 353 pause;
#X msg 758 324 stop;
#X obj 779 464 snapshot~;
#X obj 866 404 metro 30;
#X msg 866 383 1;
#X obj 751 492 tabread4~ SampleL;
#X obj 650 548 dac~;
#X obj 652 527 *~;
#X obj 774 542 probe;
#X obj 750 405 trackbarV2;
#X msg 750 375 samplerate 48000;
#X obj 935 400 delay 1;
#X msg 931 377 bang;
#X msg 937 433 resize \, bang;
#X connect 4 0 2 0;
#X connect 6 0 135 0;
#X connect 7 0 136 0;
#X connect 8 0 137 0;
#X connect 16 0 17 0;
#X connect 17 0 15 0;
#X connect 17 0 145 0;
#X connect 18 0 19 0;
#X connect 19 0 15 0;
#X connect 19 0 145 0;
#X connect 21 0 24 0;
#X connect 23 0 46 0;
#X connect 24 0 15 0;
#X connect 25 0 15 0;
#X connect 32 0 47 3;
#X connect 33 0 47 3;
#X connect 35 0 34 0;
#X connect 36 0 34 0;
#X connect 38 0 84 0;
#X connect 39 0 4 0;
#X connect 39 0 25 0;
#X connect 39 0 75 1;
#X connect 39 0 91 0;
#X connect 39 0 90 1;
#X connect 39 0 88 0;
#X connect 39 0 96 0;
#X connect 39 3 62 0;
#X connect 39 4 64 0;
#X connect 39 5 63 0;
#X connect 39 6 65 0;
#X connect 39 8 66 0;
#X connect 39 9 67 0;
#X connect 39 10 80 0;
#X connect 39 11 14 0;
#X connect 39 12 69 0;
#X connect 39 12 70 0;
#X connect 43 0 84 1;
#X connect 45 0 44 0;
#X connect 45 0 68 0;
#X connect 46 0 15 0;
#X connect 47 0 48 0;
#X connect 48 0 35 0;
#X connect 48 1 36 0;
#X connect 48 2 49 0;
#X connect 49 0 34 0;
#X connect 50 0 51 0;
#X connect 51 0 15 0;
#X connect 51 0 145 0;
#X connect 52 0 53 0;
#X connect 52 0 143 1;
#X connect 53 0 15 0;
#X connect 54 0 55 0;
#X connect 55 0 15 0;
#X connect 55 0 145 0;
#X connect 56 0 57 0;
#X connect 57 0 15 0;
#X connect 57 0 145 0;
#X connect 58 0 15 0;
#X connect 58 0 145 0;
#X connect 61 0 39 0;
#X connect 68 0 15 0;
#X connect 70 0 15 0;
#X connect 71 0 58 0;
#X connect 73 0 75 0;
#X connect 75 0 82 0;
#X connect 76 0 47 0;
#X connect 78 0 79 0;
#X connect 79 0 15 0;
#X connect 80 0 33 0;
#X connect 80 1 32 0;
#X connect 80 2 81 0;
#X connect 81 0 47 3;
#X connect 82 0 74 0;
#X connect 83 0 96 0;
#X connect 87 0 86 0;
#X connect 87 0 132 0;
#X connect 87 0 134 0;
#X connect 88 0 87 0;
#X connect 89 0 85 0;
#X connect 90 0 89 0;
#X connect 91 0 92 0;
#X connect 92 0 87 0;
#X connect 92 0 93 0;
#X connect 93 0 90 0;
#X connect 94 0 97 0;
#X connect 95 0 98 0;
#X connect 95 0 102 1;
#X connect 96 0 103 0;
#X connect 96 0 101 0;
#X connect 96 1 100 1;
#X connect 96 1 111 1;
#X connect 96 1 116 1;
#X connect 96 1 104 1;
#X connect 97 0 108 1;
#X connect 98 0 97 0;
#X connect 98 1 97 1;
#X connect 100 0 107 0;
#X connect 100 0 129 0;
#X connect 101 0 102 0;
#X connect 101 0 108 0;
#X connect 102 0 121 0;
#X connect 103 0 100 0;
#X connect 104 0 120 0;
#X connect 104 0 126 0;
#X connect 105 0 106 0;
#X connect 106 0 104 0;
#X connect 107 0 99 1;
#X connect 108 0 123 0;
#X connect 109 0 111 0;
#X connect 110 0 109 0;
#X connect 110 0 113 0;
#X connect 111 0 112 0;
#X connect 112 0 124 0;
#X connect 113 0 99 1;
#X connect 113 0 115 0;
#X connect 114 0 99 0;
#X connect 114 0 118 0;
#X connect 114 0 119 0;
#X connect 114 0 148 0;
#X connect 115 0 116 0;
#X connect 116 0 114 0;
#X connect 118 0 122 0;
#X connect 119 0 117 0;
#X connect 120 0 99 1;
#X connect 121 0 126 1;
#X connect 121 0 129 1;
#X connect 123 0 112 1;
#X connect 125 0 91 0;
#X connect 126 0 128 0;
#X connect 127 0 99 0;
#X connect 127 0 105 0;
#X connect 128 0 99 0;
#X connect 128 0 110 0;
#X connect 129 0 127 0;
#X connect 131 0 146 0;
#X connect 131 0 140 0;
#X connect 132 0 145 0;
#X connect 133 0 138 0;
#X connect 134 0 133 1;
#X connect 135 0 145 0;
#X connect 136 0 145 0;
#X connect 137 0 145 0;
#X connect 138 0 11 0;
#X connect 139 0 138 0;
#X connect 140 0 139 0;
#X connect 141 0 143 0;
#X connect 141 0 144 0;
#X connect 141 0 142 1;
#X connect 143 0 142 0;
#X connect 143 0 142 1;
#X connect 145 0 133 0;
#X connect 145 0 141 0;
#X connect 146 0 145 0;
#X connect 147 0 149 0;
#X connect 148 0 147 0;
#X connect 149 0 15 0;
#X coords 0 -1 1 1 400 250 1 100 100;
