#N canvas 294 176 450 300 10;
#X obj 74 31 inlet;
#X obj 120 31 inlet;
#X obj 161 32 inlet;
#X obj 201 31 inlet;
#X obj 245 32 inlet;
#X obj 288 33 inlet;
#X obj 334 38 inlet;
#X obj 100 100 cnv 15 195 70 empty empty empty 20 12 0 14 -66577 -66577
0;
#X obj 100 101 bng 15 250 50 0 empty empty empty 17 7 0 10 -262144
-1 -1;
#X obj 130 101 bng 15 250 50 0 empty empty empty 17 7 0 10 -262144
-1 -1;
#X obj 160 101 bng 15 250 50 0 empty empty empty 17 7 0 10 -262144
-1 -1;
#X obj 190 101 bng 15 250 50 0 empty empty empty 17 7 0 10 -262144
-1 -1;
#X obj 220 101 bng 15 250 50 0 empty empty empty 17 7 0 10 -262144
-1 -1;
#X obj 250 101 bng 15 250 50 0 empty empty empty 17 7 0 10 -262144
-1 -1;
#X obj 280 101 bng 15 250 50 0 empty empty empty 17 7 0 10 -262144
-1 -1;
#X floatatom 100 117 5 0 0 0 - - -;
#X floatatom 130 117 5 0 0 0 - - -;
#X floatatom 160 117 5 0 0 0 - - -;
#X floatatom 190 117 5 0 0 0 - - -;
#X floatatom 220 117 5 0 0 0 - - -;
#X floatatom 250 117 5 0 0 0 - - -;
#X symbolatom 100 135 10 0 0 0 - - -;
#X symbolatom 130 152 10 0 0 0 - - -;
#X symbolatom 160 135 10 0 0 0 - - -;
#X symbolatom 190 152 10 0 0 0 - - -;
#X symbolatom 220 135 10 0 0 0 - - -;
#X connect 0 0 8 0;
#X connect 0 0 21 0;
#X connect 0 0 15 0;
#X connect 1 0 9 0;
#X connect 1 0 16 0;
#X connect 1 0 22 0;
#X connect 2 0 10 0;
#X connect 2 0 17 0;
#X connect 2 0 23 0;
#X connect 3 0 11 0;
#X connect 3 0 18 0;
#X connect 3 0 24 0;
#X connect 4 0 12 0;
#X connect 4 0 19 0;
#X connect 4 0 25 0;
#X connect 5 0 13 0;
#X connect 5 0 20 0;
#X connect 6 0 14 0;
#X coords 0 -1 1 1 195 70 2 100 100;
