#N canvas 525 76 1262 827 10;
#X obj 100 100 cnv 15 400 218 empty empty Version_1.1.0 20 12 0 14
-33289 -128992 0;
#X obj 449 135 vu 12 160 empty L 3 -8 1 10 -66577 -262144 0 0;
#X obj 468 135 vu 12 160 empty R 3 -8 1 10 -66577 -262144 0 0;
#X obj 235 543 pvu~ 30 30;
#X obj 333 520 pvu~ 30 30;
#X obj 412 119 vsl 20 180 0.01 1 1 0 patchmaster patchmasterr empty
0 -9 0 10 -33991 -262144 -1 17900 1;
#X obj 184 424 *~;
#X obj 310 408 vline~;
#X msg 310 387 \$1 10;
#X obj 100 424 *~;
#X obj 100 537 dac~;
#X obj 28 374 r~ monoout;
#X obj 28 424 *~;
#X msg 379 59 1;
#X obj 379 39 loadbang;
#X obj 121 513 *~;
#X obj 100 513 *~;
#X obj 342 457 vline~;
#X obj 343 433 r audioduck;
#X obj 119 122 bng 120 250 50 0 empty empty StopAll 27 60 1 20 -185426
-1 -1;
#X text 416 157 M;
#X text 416 171 A;
#X text 416 184 S;
#X text 416 198 T;
#X text 416 212 E;
#X text 416 226 R;
#X msg 134 328 \; global hardstop;
#N canvas 743 19 1151 802 saveall 0;
#X obj 101 101 cnv 15 70 190 empty sessioncnvr Session 10 12 1 14 -154211
-262144 0;
#X obj 110 123 bng 50 100 50 0 savebng savebngr Save 13 25 1 10 -104726
-261336 -262144;
#X obj 249 404 counter 64;
#X obj 282 444 expr 11 + 2*int($f1/8) + $f1;
#X msg 249 385 inc;
#X msg 291 384 0;
#X obj 249 423 sel 64;
#X obj 249 321 % 32;
#X obj 249 341 sel 0;
#X obj 249 361 delay 1;
#X msg 249 301 \$1;
#X text 300 360 ]- Avoid stack overflow;
#X msg 282 465 \; pad\$1 save;
#X obj 249 252 r savedone;
#X obj 143 593 print SAVE;
#X obj 143 473 delay 1;
#X obj 249 276 spigot;
#X msg 317 248 1;
#X msg 351 247 0;
#X obj 290 219 t b b;
#X obj 290 199 delay 50;
#X obj 143 543 symbol save/;
#X msg 143 567 Finished saving to "\$1"!;
#X obj 290 140 tof/folderpanel;
#X obj 353 100 r global_save_dir;
#X obj 212 522 r global_save_dir;
#X obj 329 177 s global_save_dir;
#X obj 290 120 symbol save;
#X obj 290 180 t b b;
#X obj 290 160 t b s;
#X obj 110 179 bng 50 100 50 0 saveasbng saveasbngr SaveAs... 4 25
1 10 -104726 -261336 -262144;
#X obj 110 235 bng 50 250 50 0 loadsessionbng loadsessionbngr Load...
11 25 1 9 -157868 -159808 -262144;
#X obj 369 630 tof/folderpanel;
#X obj 507 682 print WARNING;
#X msg 507 660 Session directory has changed to \$1!;
#X obj 369 653 t b s;
#X msg 369 728 \; loadall bang;
#X obj 396 705 s global_save_dir;
#X obj 560 568 r global_save_dir;
#X msg 507 628 \; sessioncanvasr label \$1/;
#X obj 369 609 r loadsessionbng;
#X msg 534 367 \; sessioncnvr label Saving... \, color -1.36694e+007
;
#X msg 534 434 \; sessioncnvr label Session \, color -9.74145e+006
;
#X obj 455 370 r loadall;
#X obj 694 64 cnv 15 300 300 empty empty Initial_Load 20 12 0 14 -220732
-66577 0;
#X obj 855 91 loadbang;
#X obj 771 229 counter 64;
#X obj 804 269 expr 11 + 2*int($f1/8) + $f1;
#X obj 771 141 r loaddone;
#X msg 771 208 inc;
#X obj 813 162 r loadall;
#X msg 813 207 0;
#X msg 804 290 \; pad\$1 load;
#X obj 771 248 sel 64;
#X obj 712 293 print LOAD;
#X msg 712 274 Done loading!;
#X text 838 187 ]- Avoid stack overflow;
#X obj 855 112 delay 50;
#X obj 771 186 delay 0.01;
#X obj 855 134 s loadall;
#X msg 534 400 \; sessioncnvr label Loading... \, color -1.36694e+007
;
#X obj 223 163 r savebng;
#X obj 290 79 r saveasbng;
#X obj 920 138 s global_save_dir;
#X msg 920 118 symbol save;
#X connect 2 0 6 0;
#X connect 3 0 12 0;
#X connect 4 0 2 0;
#X connect 5 0 2 3;
#X connect 6 0 15 0;
#X connect 6 0 18 0;
#X connect 6 1 3 0;
#X connect 7 0 8 0;
#X connect 8 0 9 0;
#X connect 8 1 4 0;
#X connect 9 0 4 0;
#X connect 10 0 7 0;
#X connect 13 0 16 0;
#X connect 15 0 21 0;
#X connect 15 0 42 0;
#X connect 16 0 10 0;
#X connect 17 0 16 1;
#X connect 18 0 16 1;
#X connect 19 0 5 0;
#X connect 19 1 17 0;
#X connect 20 0 19 0;
#X connect 21 0 22 0;
#X connect 22 0 14 0;
#X connect 23 0 29 0;
#X connect 24 0 27 1;
#X connect 25 0 21 1;
#X connect 27 0 23 0;
#X connect 28 0 20 0;
#X connect 28 1 41 0;
#X connect 29 0 28 0;
#X connect 29 1 26 0;
#X connect 32 0 35 0;
#X connect 34 0 33 0;
#X connect 35 0 36 0;
#X connect 35 1 37 0;
#X connect 38 0 39 0;
#X connect 38 0 34 0;
#X connect 40 0 32 0;
#X connect 43 0 60 0;
#X connect 45 0 57 0;
#X connect 45 0 64 0;
#X connect 46 0 53 0;
#X connect 47 0 52 0;
#X connect 48 0 58 0;
#X connect 49 0 46 0;
#X connect 50 0 51 0;
#X connect 51 0 46 3;
#X connect 53 0 55 0;
#X connect 53 0 42 0;
#X connect 53 1 47 0;
#X connect 55 0 54 0;
#X connect 57 0 59 0;
#X connect 58 0 49 0;
#X connect 61 0 28 0;
#X connect 62 0 27 0;
#X connect 64 0 63 0;
#X coords 0 -1 1 1 72 192 1 100 100;
#X restore 244 108 pd saveall;
#X obj 100 374 catch~ mainoutL;
#X obj 204 374 catch~ mainoutR;
#X obj 472 468 cnv 15 400 300 empty empty Midi_IO 20 12 0 14 -233017
-66577 0;
#X obj 608 487 notein;
#X obj 579 580 pack f f;
#X obj 579 600 s globalmidi;
#X obj 481 497 ctlin;
#X obj 481 562 s globalctl;
#X obj 481 518 pack f f;
#X obj 481 540 route 127;
#X obj 575 531 gate 2;
#X obj 612 642 r noteout;
#X obj 579 664 gate 2;
#X obj 579 622 r modelselector;
#X obj 579 733 noteout;
#X obj 579 685 unpack f f f;
#X obj 579 555 minitomk2;
#X obj 579 709 mk2tomini;
#N canvas 826 448 450 300 modelselector 0;
#X obj 101 101 cnv 15 118 50 empty empty ModelSelector 2 8 1 14 -203893
-66577 0;
#X obj 110 119 vradio 15 1 0 2 NULL NULLR empty 0 -8 0 10 -262144 -1
-1 0;
#X text 129 117 LaunchpadMini;
#X text 129 133 LaunchpadMk2;
#X obj 110 59 - 1;
#X obj 110 165 + 1;
#X obj 110 186 s modelselect;
#X obj 110 35 r modelselectr;
#X obj 220 44 loadbang;
#X msg 220 64 0;
#X connect 1 0 5 0;
#X connect 4 0 1 0;
#X connect 5 0 6 0;
#X connect 7 0 4 0;
#X connect 8 0 9 0;
#X connect 9 0 1 0;
#X coords 0 -1 1 1 120 52 2 100 100;
#X restore 119 247 pd modelselector;
#X obj 575 509 r modelselect;
#X obj 104 304 cnv 10 390 10 empty empty Session: 0 5 1 10 -33289 -162280
0;
#X obj 146 304 cnv 10 345 10 empty sessioncanvasr save/ 0 5 1 10 -33289
-262144 0;
#N canvas 254 530 450 300 fakepress 1;
#X obj 201 66 key;
#X obj 201 90 sel 32;
#X obj 216 162 spigot;
#X obj 282 162 tgl 15 0 empty empty empty 17 7 0 10 -262144 -1 -1 1
1;
#X msg 286 132 1;
#X obj 266 44 loadbang;
#X obj 333 24 keyup;
#X obj 333 47 sel 32;
#X msg 361 76 stop;
#X obj 282 188 spigot;
#X obj 282 270 s globalmidi;
#X obj 387 212 r selected_pad;
#X obj 282 229 pack f f;
#X obj 282 209 expr (1-$f1)*127;
#X msg 282 250 \$2 \$1;
#X obj 101 101 cnv 15 80 94 empty empty FakeMIDI 13 10 1 13 -233017
-66577 0;
#X obj 106 125 tgl 15 0 empty empty Enable 17 7 1 10 -262144 -1 -1
1 1;
#X text 103 141 Press space;
#X text 102 152 to emulate;
#X text 103 164 MIDI for;
#X text 103 174 selected pad;
#X obj 361 97 delay 10;
#X connect 0 0 1 0;
#X connect 1 0 2 0;
#X connect 1 0 8 0;
#X connect 2 0 3 0;
#X connect 3 0 2 1;
#X connect 3 0 9 0;
#X connect 4 0 3 0;
#X connect 5 0 4 0;
#X connect 6 0 7 0;
#X connect 7 0 21 0;
#X connect 8 0 21 0;
#X connect 9 0 13 0;
#X connect 11 0 12 1;
#X connect 12 0 14 0;
#X connect 13 0 12 0;
#X connect 14 0 10 0;
#X connect 16 0 9 1;
#X connect 21 0 4 0;
#X coords 0 -1 1 1 82 96 1 100 100;
#X restore 321 108 pd fakepress;
#X connect 3 0 1 0;
#X connect 4 0 2 0;
#X connect 5 0 8 0;
#X connect 6 0 15 0;
#X connect 7 0 6 1;
#X connect 7 0 9 1;
#X connect 7 0 12 1;
#X connect 8 0 7 0;
#X connect 9 0 16 0;
#X connect 11 0 12 0;
#X connect 12 0 15 0;
#X connect 12 0 16 0;
#X connect 13 0 5 0;
#X connect 14 0 13 0;
#X connect 15 0 10 1;
#X connect 15 0 4 0;
#X connect 16 0 10 0;
#X connect 16 0 3 0;
#X connect 17 0 15 1;
#X connect 17 0 16 1;
#X connect 18 0 17 0;
#X connect 19 0 26 0;
#X connect 28 0 9 0;
#X connect 29 0 6 0;
#X connect 31 0 38 1;
#X connect 31 1 32 1;
#X connect 32 0 33 0;
#X connect 34 0 36 0;
#X connect 34 1 36 1;
#X connect 36 0 37 0;
#X connect 37 0 35 0;
#X connect 38 0 44 0;
#X connect 38 1 32 0;
#X connect 39 0 40 1;
#X connect 40 0 43 0;
#X connect 40 1 42 0;
#X connect 41 0 40 0;
#X connect 43 0 45 0;
#X connect 43 1 45 1;
#X connect 43 2 45 2;
#X connect 44 0 32 0;
#X connect 45 0 42 0;
#X connect 45 1 42 1;
#X connect 45 2 42 2;
#X connect 47 0 38 0;
#X coords 0 -1 1 1 400 218 2 100 100;
