#N canvas 0 0 1362 692 10;
#X obj 146 -37 route \$1;
#X obj 146 -57 r globalmidi;
#X obj 323 -121 openpanel;
#X obj 347 -6 soundfiler;
#X msg 49 -41 label \$1;
#X obj 0 0 bng 60 100 20 0 NULL NULLR empty 17 7 0 10 -160262 -262144
-262144;
#X msg 347 -28 read -resize \$1 sample\$2L sample\$2R;
#X obj 392 -163 loadbang;
#X obj 347 -50 pack s f;
#X msg 323 -142 symbol samples;
#X msg 227 3 play;
#X msg 347 15 samplesize \$1;
#X obj 323 57 trackbarV2 \$1;
#X obj 323 -164 route bang;
#X obj 275 -292 r topad;
#X obj 275 -249 sel \$1;
#X msg 308 -228 0;
#X msg 275 -228 1;
#X obj 323 -206 gate;
#X obj 392 -121 i \$1;
#X obj 275 -270 route select;
#X obj 0 -83 route color label;
#X msg 146 -99 127;
#X msg 178 -100 0;
#X msg 4 -143 color 7;
#X obj 0 -62 padcolor;
#X obj 99 299 s rpadsettings;
#X obj 99 259 i \$1;
#X obj 146 -17 sel 0;
#X obj 295 88 tabread4~ sample\$1L;
#X obj 417 88 tabread4~ sample\$1R;
#X obj 295 159 s~ outL;
#X obj 417 159 s~ outR;
#X obj 294 136 *~;
#X obj 417 136 *~;
#X obj 505 157 vline~;
#X msg 505 137 \$1 10;
#X msg 505 117 1;
#X obj 146 3 symbol stop;
#X msg 323 -99 symbol \$1;
#X obj 143 216 route samplerate playspeed start@ stop@ loop starttime
stoptime rfunction master color;
#X obj 99 279 pack f f f f f f f s f f s f f;
#X msg 367 262 symbol \$1;
#X msg 442 -3 samplerate 44100 \, samplesize 44100 \, start@ 0 \, stop@
0.999 \, playspeed 1 \, starttime 1 \, stoptime 1 \, rfunction stop
\, master 1 \, color 1;
#X obj 116 86 s intfiler;
#N canvas 0 0 450 300 (subpatch) 0;
#X array sample\$1L 5151 float 2;
#X coords 0 300 5151 299 200 140 0;
#X restore 725 -308 graph;
#N canvas 0 0 450 300 (subpatch) 0;
#X array sample\$1R 5151 float 2;
#X coords 0 300 5151 299 200 140 0;
#X restore 725 -288 graph;
#X msg 473 -144 samplesize \$1;
#X msg 473 -186 set sample\$1L;
#X obj 473 -164 arraysize;
#X obj 473 -124 print;
#X obj 323 -184 route load resize bang;
#X msg 95 171 bang;
#X connect 0 0 25 1;
#X connect 0 0 28 0;
#X connect 1 0 0 0;
#X connect 2 0 39 0;
#X connect 3 0 11 0;
#X connect 3 0 41 2;
#X connect 4 0 5 0;
#X connect 5 0 27 0;
#X connect 6 0 3 0;
#X connect 7 0 19 0;
#X connect 7 0 43 0;
#X connect 7 0 37 0;
#X connect 8 0 6 0;
#X connect 9 0 2 0;
#X connect 10 0 12 0;
#X connect 11 0 12 0;
#X connect 12 0 29 0;
#X connect 12 0 30 0;
#X connect 13 0 9 0;
#X connect 13 1 2 0;
#X connect 14 0 20 0;
#X connect 15 0 17 0;
#X connect 15 1 16 0;
#X connect 16 0 18 0;
#X connect 17 0 18 0;
#X connect 18 0 21 0;
#X connect 18 0 51 0;
#X connect 19 0 8 1;
#X connect 19 0 48 0;
#X connect 20 0 15 0;
#X connect 20 1 18 1;
#X connect 21 0 25 0;
#X connect 21 1 4 0;
#X connect 22 0 25 1;
#X connect 23 0 25 1;
#X connect 24 0 21 0;
#X connect 25 0 5 0;
#X connect 27 0 41 0;
#X connect 28 0 38 0;
#X connect 28 1 10 0;
#X connect 29 0 33 0;
#X connect 30 0 34 0;
#X connect 33 0 31 0;
#X connect 34 0 32 0;
#X connect 35 0 33 1;
#X connect 35 0 34 1;
#X connect 36 0 35 0;
#X connect 37 0 36 0;
#X connect 38 0 12 0;
#X connect 39 0 8 0;
#X connect 39 0 41 7;
#X connect 39 0 44 0;
#X connect 40 0 41 1;
#X connect 40 1 41 3;
#X connect 40 2 41 4;
#X connect 40 3 41 5;
#X connect 40 4 41 6;
#X connect 40 5 41 8;
#X connect 40 6 41 9;
#X connect 40 7 42 0;
#X connect 40 8 36 0;
#X connect 40 8 41 11;
#X connect 40 9 41 12;
#X connect 41 0 26 0;
#X connect 42 0 38 1;
#X connect 42 0 41 10;
#X connect 43 0 12 0;
#X connect 43 0 40 0;
#X connect 43 0 21 0;
#X connect 47 0 50 0;
#X connect 47 0 51 0;
#X connect 48 0 49 0;
#X connect 49 0 47 0;
#X connect 51 0 13 0;
#X connect 51 1 49 0;
#X connect 51 2 52 0;
#X connect 51 3 12 0;
#X connect 51 3 40 0;
#X connect 52 0 27 0;
#X coords 0 -1 1 1 60 60 1 0 0;
