#N canvas 363 301 1366 686 10;
#X obj 209 -135 route \$1;
#X obj 209 -155 r globalmidi;
#X obj 323 -121 openpanel;
#X obj 347 -6 soundfiler;
#X msg 55 -41 label \$1;
#X obj 0 0 bng 60 100 20 0 NULL NULLR - 5 29 1 10 -104158 -262144 -262144
;
#X msg 347 -28 read -resize \$1 sample\$2L sample\$2R;
#X obj 392 -96 loadbang;
#X obj 347 -50 pack s f;
#X msg 250 9 play;
#X msg 347 15 samplesize \$1;
#X obj 323 57 trackbarV2 \$1;
#X obj 212 -444 r topad;
#X obj 212 -401 sel \$1;
#X msg 245 -380 0;
#X msg 212 -380 1;
#X obj 260 -358 gate;
#X obj 392 -72 i \$1;
#X obj 212 -422 route select;
#X obj 176 -11 sel 0;
#X obj 295 88 tabread4~ sample\$1L;
#X obj 417 88 tabread4~ sample\$1R;
#X obj 294 136 *~;
#X obj 417 136 *~;
#X obj 542 87 vline~;
#X msg 542 67 \$1 10;
#X msg 542 47 1;
#X obj 176 9 symbol stop;
#X msg 323 -99 symbol \$1;
#X obj 240 -82 s intfiler;
#X msg 449 -55 samplesize \$1;
#X msg 449 -96 set sample\$1L;
#X obj 449 -75 arraysize;
#X msg 257 -104 file \$1;
#X obj 261 -240 i \$1;
#X obj 399 -176 s rpadsettings;
#X obj 542 26 loadbang;
#X obj 294 -379 r presetload;
#X obj 294 -358 route \$1;
#X obj 260 -336 route bang load resize save;
#X obj 910 -357 i \$1;
#X msg 743 -39 \; sample\$1L write samples/recent/sample\$1L.txt \;
sample\$1R write samples/recent/sample\$1R.txt;
#X msg 910 -337 \; sample\$1L read samples/recent/sample\$1L.txt \;
sample\$1R read samples/recent/sample\$1R.txt;
#X obj 420 -306 route label rfunction master samplerate samplesize
playspeed start@ stop@ starttime stoptime loop color;
#X msg 706 -203 \; sample\$2L resize \$1 \; sample\$2R resize \$1 \;
;
#X obj 706 -223 list \$1;
#X obj 445 -251 symbol;
#X obj 420 -272 symbol;
#X obj 743 -59 i \$1;
#X obj 278 166 *~;
#X obj 402 167 *~;
#X obj 233 136 vline~;
#X msg 233 115 1 1;
#X msg 218 86 0 1;
#X msg 176 29 \$1;
#X obj 278 188 outlet~;
#X obj 403 189 outlet~;
#X obj 0 -62 padcolor \$1;
#X msg 54 -88 0;
#X msg 83 -88 1;
#X obj 416 -358 r global;
#X obj -27 83 sel pause stop altstop nothing;
#X msg 20 112 1;
#X msg -15 110 0;
#X msg -4 159 phaseresetenable \$1;
#X obj 399 -197 list;
#X obj 420 -223 pack s s f f f f f f f f f f;
#X obj 167 -214 list;
#X obj 167 -255 delay 1;
#X obj 21 -258 r copy;
#X obj 167 -194 s copyr;
#X obj 21 -237 route bang done;
#X obj 176 -51 gate 2;
#X msg 154 -74 1;
#X msg 180 -74 2;
#X obj 154 -96 loadbang;
#X obj 74 -293 sel 0;
#X msg 167 -276 bang;
#X obj 167 -234 i \$1;
#X obj 58 -175 metro 400;
#X obj 58 -153 tgl 15 0 empty empty empty 17 7 0 10 -262144 -1 -1 0
1;
#X obj 58 -133 sel 0 1;
#X msg 39 -201 1;
#X msg 64 -202 0;
#X obj 261 -263 delay 5;
#X msg 323 -141 symbol E:/PDProjects/ProjectXIV-Launchpad/samples;
#X obj 910 -402 r readsamplenumber;
#X obj 910 -380 sel \$1;
#N canvas 0 0 450 300 (subpatch) 0;
#X array sample\$1L 47360 float 0;
#X coords 0 300 47359 299 200 140 0;
#X restore 910 -442 graph;
#N canvas 0 0 450 300 (subpatch) 0;
#X array sample\$1R 47360 float 0;
#X coords 0 300 47359 299 200 140 0;
#X restore 947 -442 graph;
#X obj 737 -92 s savepadsettings;
#X text 221 -50 <- Global Midi;
#X text 119 134 Auto Volume off ->;
#X obj 737 -112 list;
#X obj 737 -132 i \$1;
#X obj 737 -152 delay 5;
#X msg 379 -292 bang;
#X obj 409 -464 loadbang;
#X msg 409 -440 samplerate 44100 \, stop@ 0.999 \, playspeed 1 \, master
1 \, rfunction nothing;
#X connect 0 0 72 1;
#X connect 1 0 0 0;
#X connect 2 0 28 0;
#X connect 2 0 33 0;
#X connect 3 0 10 0;
#X connect 4 0 5 0;
#X connect 5 0 66 0;
#X connect 5 0 84 0;
#X connect 6 0 3 0;
#X connect 7 0 17 0;
#X connect 8 0 6 0;
#X connect 9 0 11 0;
#X connect 9 0 52 0;
#X connect 10 0 11 0;
#X connect 10 0 39 0;
#X connect 11 0 20 0;
#X connect 11 0 21 0;
#X connect 11 1 53 0;
#X connect 11 1 58 0;
#X connect 12 0 18 0;
#X connect 13 0 15 0;
#X connect 13 1 14 0;
#X connect 14 0 16 0;
#X connect 15 0 16 0;
#X connect 16 0 39 0;
#X connect 17 0 8 1;
#X connect 17 0 31 0;
#X connect 17 0 45 1;
#X connect 17 0 38 1;
#X connect 18 0 13 0;
#X connect 18 1 16 1;
#X connect 19 0 27 0;
#X connect 19 1 9 0;
#X connect 19 1 59 0;
#X connect 20 0 22 0;
#X connect 21 0 23 0;
#X connect 22 0 49 1;
#X connect 23 0 50 1;
#X connect 24 0 22 1;
#X connect 24 0 23 1;
#X connect 25 0 24 0;
#X connect 26 0 25 0;
#X connect 27 0 54 0;
#X connect 28 0 8 0;
#X connect 28 0 29 0;
#X connect 30 0 39 0;
#X connect 31 0 32 0;
#X connect 32 0 30 0;
#X connect 34 0 65 0;
#X connect 36 0 26 0;
#X connect 37 0 38 0;
#X connect 38 0 39 0;
#X connect 39 0 66 0;
#X connect 39 0 84 0;
#X connect 39 1 85 0;
#X connect 39 2 32 0;
#X connect 39 3 48 0;
#X connect 39 3 95 0;
#X connect 39 3 96 0;
#X connect 39 4 11 0;
#X connect 39 4 43 0;
#X connect 40 0 42 0;
#X connect 43 0 47 0;
#X connect 43 1 46 0;
#X connect 43 2 25 0;
#X connect 43 2 66 2;
#X connect 43 3 66 3;
#X connect 43 4 45 0;
#X connect 43 4 66 4;
#X connect 43 5 66 5;
#X connect 43 6 66 6;
#X connect 43 7 66 7;
#X connect 43 8 66 8;
#X connect 43 9 66 9;
#X connect 43 10 66 10;
#X connect 43 11 57 0;
#X connect 43 11 66 11;
#X connect 45 0 44 0;
#X connect 46 0 27 1;
#X connect 46 0 61 0;
#X connect 46 0 66 1;
#X connect 47 0 4 0;
#X connect 47 0 66 0;
#X connect 48 0 41 0;
#X connect 49 0 55 0;
#X connect 50 0 56 0;
#X connect 51 0 49 0;
#X connect 51 0 50 0;
#X connect 52 0 51 0;
#X connect 53 0 51 0;
#X connect 54 0 11 0;
#X connect 57 0 5 0;
#X connect 58 0 57 1;
#X connect 59 0 57 1;
#X connect 60 0 39 0;
#X connect 61 0 63 0;
#X connect 61 1 62 0;
#X connect 61 2 62 0;
#X connect 61 3 62 0;
#X connect 62 0 64 0;
#X connect 63 0 64 0;
#X connect 64 0 11 0;
#X connect 65 0 35 0;
#X connect 66 0 65 1;
#X connect 66 0 67 1;
#X connect 66 0 93 1;
#X connect 67 0 70 0;
#X connect 68 0 78 0;
#X connect 69 0 71 0;
#X connect 71 0 74 0;
#X connect 71 1 73 0;
#X connect 71 1 83 0;
#X connect 72 0 19 0;
#X connect 72 1 76 0;
#X connect 73 0 72 0;
#X connect 74 0 72 0;
#X connect 75 0 73 0;
#X connect 76 1 77 0;
#X connect 76 1 82 0;
#X connect 77 0 68 0;
#X connect 77 0 66 0;
#X connect 78 0 67 0;
#X connect 79 0 80 0;
#X connect 80 0 81 0;
#X connect 81 0 58 0;
#X connect 81 1 59 0;
#X connect 82 0 79 0;
#X connect 83 0 79 0;
#X connect 83 0 80 0;
#X connect 84 0 34 0;
#X connect 85 0 2 0;
#X connect 86 0 87 0;
#X connect 87 0 40 0;
#X connect 93 0 90 0;
#X connect 94 0 93 0;
#X connect 95 0 94 0;
#X connect 96 0 66 0;
#X connect 97 0 98 0;
#X connect 98 0 39 0;
#X coords 0 -1 1 1 60 60 1 0 0;
