#N canvas 405 109 1205 730 10;
#X obj 209 -135 route \$1;
#X obj 209 -155 r globalmidi;
#X obj 323 -121 openpanel;
#X obj 347 -6 soundfiler;
#X msg 55 -41 label \$1;
#X obj 0 0 bng 60 250 50 0 NULL NULLR - 5 28 1 10 -116511 -1 -262144
;
#X msg 347 -28 read -resize \$1 sample\$2L sample\$2R;
#X obj 392 -96 loadbang;
#X obj 347 -50 pack s f;
#X msg 250 9 play;
#X msg 347 15 samplesize \$1;
#X obj 323 57 trackbarV2 \$1;
#X obj 392 -76 i \$1;
#X obj 176 -11 sel 0;
#X obj 295 88 tabread4~ sample\$1L;
#X obj 417 88 tabread4~ sample\$1R;
#X obj 294 136 *~;
#X obj 417 136 *~;
#X obj 542 87 vline~;
#X msg 542 67 \$1 10;
#X msg 542 47 1;
#X obj 176 9 symbol stop;
#X msg 323 -99 symbol \$1;
#X obj 248 -68 s intfiler;
#X msg 449 -55 samplesize \$1;
#X msg 449 -96 set sample\$1L;
#X obj 449 -75 arraysize;
#X msg 257 -104 file \$1;
#X obj 260 -287 i \$1;
#X obj 399 -176 s rpadsettings;
#X obj 542 26 loadbang;
#X obj 272 -403 r presetload;
#X obj 272 -382 route \$1;
#X obj 420 -306 route label rfunction master samplerate samplesize
playspeed start@ stop@ starttime stoptime loop color;
#X msg 694 -160 \; sample\$2L resize \$1 \; sample\$2R resize \$1 \;
;
#X obj 694 -180 list \$1;
#X obj 445 -251 symbol;
#X obj 420 -272 symbol;
#X obj 278 166 *~;
#X obj 402 167 *~;
#X obj 233 136 vline~;
#X msg 233 115 1 1;
#X msg 218 86 0 1;
#X msg 176 29 \$1;
#X obj 278 188 outlet~;
#X obj 403 189 outlet~;
#X obj 0 -62 padcolor \$1;
#X msg 54 -88 0;
#X msg 83 -88 1;
#X obj 199 -401 r global;
#X obj -27 83 sel pause stop altstop nothing;
#X msg 20 112 1;
#X msg -15 110 0;
#X msg -7 153 phaseresetenable \$1;
#X obj 399 -197 list;
#X obj 420 -223 pack s s f f f f f f f f f f;
#X obj 167 -214 list;
#X obj 21 -258 r copy;
#X obj 167 -194 s copyr;
#X obj 21 -237 route bang done;
#X obj 176 -51 gate 2;
#X msg 154 -74 1;
#X msg 180 -74 2;
#X obj 154 -96 loadbang;
#X obj 74 -293 sel 0;
#X obj 167 -234 i \$1;
#X obj 58 -175 metro 400;
#X obj 58 -153 tgl 15 0 empty empty empty 17 7 0 10 -262144 -1 -1 0
1;
#X obj 58 -133 sel 0 1;
#X msg 39 -201 1;
#X msg 64 -202 0;
#X msg 323 -141 symbol E:/PDProjects/ProjectXIV-Launchpad/samples;
#N canvas 0 0 450 300 (subpatch) 0;
#X array sample\$1L 100 float 0;
#X coords 0 300 99 299 200 140 0;
#X restore 910 -442 graph;
#N canvas 0 0 450 300 (subpatch) 0;
#X array sample\$1R 100 float 0;
#X coords 0 300 99 299 200 140 0;
#X restore 947 -442 graph;
#X text 221 -50 <- Global Midi;
#X text 119 134 Auto Volume off ->;
#X obj 409 -464 loadbang;
#X obj 729 -273 route delete;
#X msg 409 -436 label - \, samplerate 44100 \, stop@ 0.99 \, playspeed
1 \, master 1 \, rfunction altstop \, loop 0 \, samplesize 100 \, color
0 \, starttime 0 \, stoptime 0;
#X obj 729 -252 t b b b;
#X obj 748 -231 i \$1;
#X obj 260 -308 t b b;
#X obj 167 -255 t b b;
#X obj 42 -390 splitfilename;
#X msg 117 -370 label \$1;
#X text 30 -407 On loadfile \, rename;
#X msg 748 -210 \; sample\$1L const 0 \; sample\$1R const 0;
#X obj 370 -315 t b b;
#X obj 260 -429 r pad\$1;
#X obj 260 -336 route bang open resize save load;
#X obj 908 -142 list;
#N canvas 1070 254 651 631 save 1;
#X obj 79 -51 inlet;
#X obj 79 -30 route bang;
#X obj 184 413 soundfiler;
#X obj 257 192 textfile;
#X msg 305 92 clear;
#X msg 257 113 add label \$1 \, add rfunction \$2 \, add master \$3
\, add samplerate \$4 \, add samplesize \$5 \, add playspeed \$6 \,
add start@ \$7 \, add stop@ \$8 \, add starttime \$9 \, add stoptime
\$10 \, add loop \$11 \, add color \$12;
#X msg 235 247 \$4;
#X obj 115 -5 list;
#X obj 184 475 s savedone;
#X obj 184 435 pack f \$1;
#X msg 184 455 \$2 \$1;
#X obj 271 483 print SAVE;
#X msg 271 462 Saved pad\$1 (\$2 samples);
#X obj 372 83 i \$1;
#X msg 373 183 Saving pad\$1...;
#X obj 238 66 t b b a b b;
#X obj 247 343 r global_save_dir;
#X obj 184 366 pack \$1 f s;
#X msg 184 388 write -wave -rate \$2 \$3/pad\$1 sample\$1L sample\$1R
;
#X obj 123 137 pack \$1 s;
#X obj 113 102 r global_save_dir;
#X msg 123 159 write \$2/pad\$1.txt;
#X connect 0 0 1 0;
#X connect 1 0 7 0;
#X connect 1 1 7 1;
#X connect 2 0 9 0;
#X connect 4 0 3 0;
#X connect 5 0 3 0;
#X connect 6 0 17 1;
#X connect 7 0 6 0;
#X connect 7 0 15 0;
#X connect 9 0 10 0;
#X connect 10 0 8 0;
#X connect 10 0 12 0;
#X connect 12 0 11 0;
#X connect 13 0 14 0;
#X connect 14 0 11 0;
#X connect 15 0 17 0;
#X connect 15 1 19 0;
#X connect 15 2 5 0;
#X connect 15 3 4 0;
#X connect 15 4 13 0;
#X connect 16 0 17 2;
#X connect 17 0 18 0;
#X connect 18 0 2 0;
#X connect 19 0 21 0;
#X connect 20 0 19 1;
#X connect 21 0 3 0;
#X restore 370 -273 pd save;
#N canvas 553 183 737 522 load 0;
#X obj 74 65 inlet;
#X obj 190 327 soundfiler;
#X obj 190 347 pack f \$1;
#X msg 190 367 \$2 \$1;
#X msg 93 112 bang;
#X obj 113 207 textfile;
#X obj 93 133 t b b;
#X obj 94 234 t b a;
#X obj 121 280 s pad\$1;
#X obj 222 448 print LOAD;
#X msg 222 427 Loaded pad\$1 (\$2 samples);
#X obj 190 388 s loaddone;
#X obj 164 101 r global_save_dir;
#X obj 173 122 loadbang;
#X msg 173 141 symbol save;
#X obj 113 165 pack \$1 s;
#X msg 113 186 read \$2/pad\$1.txt \, rewind;
#X obj 241 220 r global_save_dir;
#X obj 250 241 loadbang;
#X msg 250 260 symbol save;
#X obj 190 284 pack \$1 s;
#X msg 190 307 read -resize \$2/pad\$1.wav sample\$1L sample\$1R;
#X connect 0 0 4 0;
#X connect 1 0 2 0;
#X connect 2 0 3 0;
#X connect 3 0 10 0;
#X connect 3 0 11 0;
#X connect 4 0 6 0;
#X connect 5 0 7 0;
#X connect 5 1 20 0;
#X connect 6 0 5 0;
#X connect 6 1 15 0;
#X connect 7 0 5 0;
#X connect 7 1 8 0;
#X connect 10 0 9 0;
#X connect 12 0 15 1;
#X connect 13 0 14 0;
#X connect 14 0 15 1;
#X connect 15 0 16 0;
#X connect 16 0 5 0;
#X connect 17 0 20 1;
#X connect 18 0 19 0;
#X connect 19 0 20 1;
#X connect 20 0 21 0;
#X connect 21 0 1 0;
#X restore 441 -359 pd load;
#X obj 293 208 throw~ mainoutL;
#X obj 405 208 throw~ mainoutR;
#X connect 0 0 60 1;
#X connect 1 0 0 0;
#X connect 2 0 22 0;
#X connect 2 0 27 0;
#X connect 3 0 10 0;
#X connect 4 0 5 0;
#X connect 5 0 55 0;
#X connect 5 0 81 0;
#X connect 6 0 3 0;
#X connect 7 0 12 0;
#X connect 8 0 6 0;
#X connect 9 0 11 0;
#X connect 9 0 41 0;
#X connect 10 0 11 0;
#X connect 10 0 89 0;
#X connect 11 0 14 0;
#X connect 11 0 15 0;
#X connect 11 1 42 0;
#X connect 11 1 47 0;
#X connect 12 0 8 1;
#X connect 12 0 25 0;
#X connect 12 0 35 1;
#X connect 13 0 21 0;
#X connect 13 1 9 0;
#X connect 13 1 48 0;
#X connect 14 0 16 0;
#X connect 15 0 17 0;
#X connect 16 0 38 1;
#X connect 17 0 39 1;
#X connect 18 0 16 1;
#X connect 18 0 17 1;
#X connect 19 0 18 0;
#X connect 20 0 19 0;
#X connect 21 0 43 0;
#X connect 22 0 8 0;
#X connect 22 0 23 0;
#X connect 22 0 83 0;
#X connect 24 0 89 0;
#X connect 25 0 26 0;
#X connect 26 0 24 0;
#X connect 28 0 54 0;
#X connect 30 0 20 0;
#X connect 31 0 32 0;
#X connect 32 0 89 0;
#X connect 33 0 37 0;
#X connect 33 1 36 0;
#X connect 33 2 19 0;
#X connect 33 2 55 2;
#X connect 33 3 55 3;
#X connect 33 4 35 0;
#X connect 33 4 55 4;
#X connect 33 5 55 5;
#X connect 33 6 55 6;
#X connect 33 7 55 7;
#X connect 33 8 55 8;
#X connect 33 9 55 9;
#X connect 33 10 55 10;
#X connect 33 11 46 0;
#X connect 33 11 55 11;
#X connect 33 12 77 0;
#X connect 35 0 34 0;
#X connect 36 0 21 1;
#X connect 36 0 50 0;
#X connect 36 0 55 1;
#X connect 37 0 4 0;
#X connect 37 0 55 0;
#X connect 38 0 44 0;
#X connect 38 0 93 0;
#X connect 39 0 45 0;
#X connect 39 0 94 0;
#X connect 40 0 38 0;
#X connect 40 0 39 0;
#X connect 41 0 40 0;
#X connect 42 0 40 0;
#X connect 43 0 11 0;
#X connect 46 0 5 0;
#X connect 47 0 46 1;
#X connect 48 0 46 1;
#X connect 49 0 89 0;
#X connect 50 0 52 0;
#X connect 50 1 51 0;
#X connect 50 2 51 0;
#X connect 50 3 51 0;
#X connect 51 0 53 0;
#X connect 52 0 53 0;
#X connect 53 0 11 0;
#X connect 54 0 29 0;
#X connect 55 0 54 1;
#X connect 55 0 56 1;
#X connect 55 0 91 0;
#X connect 56 0 58 0;
#X connect 57 0 59 0;
#X connect 59 0 62 0;
#X connect 59 1 61 0;
#X connect 59 1 70 0;
#X connect 60 0 13 0;
#X connect 60 1 64 0;
#X connect 61 0 60 0;
#X connect 62 0 60 0;
#X connect 63 0 61 0;
#X connect 64 1 69 0;
#X connect 64 1 82 0;
#X connect 65 0 56 0;
#X connect 66 0 67 0;
#X connect 67 0 68 0;
#X connect 68 0 47 0;
#X connect 68 1 48 0;
#X connect 69 0 66 0;
#X connect 70 0 66 0;
#X connect 70 0 67 0;
#X connect 71 0 2 0;
#X connect 76 0 78 0;
#X connect 77 0 79 0;
#X connect 78 0 89 0;
#X connect 79 0 5 0;
#X connect 79 1 80 0;
#X connect 79 2 78 0;
#X connect 80 0 86 0;
#X connect 81 0 28 0;
#X connect 81 1 55 0;
#X connect 82 0 65 0;
#X connect 82 1 55 0;
#X connect 83 1 84 0;
#X connect 84 0 89 0;
#X connect 87 0 91 0;
#X connect 87 1 55 0;
#X connect 88 0 89 0;
#X connect 89 0 55 0;
#X connect 89 0 81 0;
#X connect 89 1 71 0;
#X connect 89 2 26 0;
#X connect 89 3 87 0;
#X connect 89 4 92 0;
#X connect 89 5 33 0;
#X connect 89 5 11 0;
#X coords 0 -1 1 1 60 60 1 0 0;
