#N canvas 357 82 888 601 10;
#X obj 373 -9 inlet;
#X text 355 -28 Color group;
#X obj 534 154 inlet;
#X obj 437 300 outlet;
#X text 437 316 to GUI;
#X obj 534 174 sel 0;
#X obj 437 257 i;
#X obj 463 257 i;
#X msg 561 211 bang;
#X msg 437 279 color \$1;
#X obj 503 337 i \$1;
#X obj 410 114 textfile;
#X msg 430 48 rewind;
#X obj 430 92 metro 1;
#X msg 489 70 stop;
#X msg 430 69 bang;
#X msg 430 25 read padcolorbank.txt;
#X obj 410 159 unpack f f f f;
#X obj 534 257 i;
#X obj 561 257 i;
#X text 572 154 <- pad midi;
#X obj 430 4 loadbang;
#X obj 189 127 route items;
#X obj 174 154 >;
#X obj 174 176 sel 1;
#X obj 174 241 print ERROR;
#X msg 174 219 Please use a number between 1 and \$1;
#X obj 174 198 i 100;
#X obj 410 138 route 0;
#X obj 503 358 pack f f 1;
#X msg 323 78 bang;
#X obj 323 109 delay 50;
#X obj 613 251 t b f;
#X obj 534 278 t b f;
#X obj 503 381 s noteout;
#X connect 0 0 16 0;
#X connect 0 0 23 0;
#X connect 0 0 28 1;
#X connect 0 0 30 0;
#X connect 2 0 5 0;
#X connect 5 0 18 0;
#X connect 5 0 6 0;
#X connect 5 1 8 0;
#X connect 6 0 9 0;
#X connect 7 0 9 0;
#X connect 8 0 7 0;
#X connect 8 0 19 0;
#X connect 9 0 3 0;
#X connect 10 0 29 0;
#X connect 11 0 22 0;
#X connect 11 0 28 0;
#X connect 11 1 14 0;
#X connect 12 0 11 0;
#X connect 12 0 15 0;
#X connect 13 0 11 0;
#X connect 14 0 13 0;
#X connect 15 0 13 0;
#X connect 16 0 11 0;
#X connect 16 0 12 0;
#X connect 17 0 6 0;
#X connect 17 1 7 1;
#X connect 17 2 18 0;
#X connect 17 3 19 1;
#X connect 18 0 33 0;
#X connect 19 0 32 0;
#X connect 21 0 16 0;
#X connect 22 0 23 1;
#X connect 22 0 27 1;
#X connect 23 0 24 0;
#X connect 24 0 27 0;
#X connect 26 0 25 0;
#X connect 27 0 26 0;
#X connect 28 0 17 0;
#X connect 29 0 34 0;
#X connect 30 0 31 0;
#X connect 32 0 10 0;
#X connect 32 1 29 1;
#X connect 33 0 10 0;
#X connect 33 1 29 1;
