#N canvas 597 96 611 480 10;
#N canvas 0 0 450 300 (subpatch) 0;
#X array temparray 350592 float 2;
#X coords 0 300 350592 299 200 140 0;
#X restore 82 95 graph;
#X msg 143 185 stop;
#X obj 90 256 f;
#X msg 104 185 bang;
#X obj 120 255 + 1;
#X obj 241 193 arraysize;
#X msg 242 170 set \$1;
#X msg 339 124 bang;
#X obj 165 281 arraycopy;
#X obj 143 165 sel 50;
#X msg 54 239 0;
#X obj 90 278 expr $f1 \; $f2-$f1-1 \;;
#X obj 104 206 delay 0.0001;
#X obj 417 29 inlet;
#X obj 90 312 tabread;
#X obj 90 332 tabwrite temparray;
#X obj 339 145 delay 1;
#X msg 241 218 \; temparray resize \$1;
#X obj 165 240 delay 1;
#X msg 165 260 copy temparray;
#X obj 434 112 drip;
#X obj 430 222 textfile;
#X msg 487 193 rewind;
#X msg 445 192 bang;
#X obj 262 259 delay 1;
#X obj 485 136 delay 1;
#X msg 485 117 bang;
#X msg 378 102 clear;
#X msg 434 156 add symbol \$1;
#X msg 289 169 bang;
#X connect 1 0 12 0;
#X connect 2 0 4 0;
#X connect 2 0 9 0;
#X connect 2 0 11 0;
#X connect 3 0 12 0;
#X connect 4 0 2 1;
#X connect 4 0 3 0;
#X connect 5 0 17 0;
#X connect 5 0 9 1;
#X connect 5 0 11 1;
#X connect 5 0 10 0;
#X connect 6 0 5 0;
#X connect 6 0 14 0;
#X connect 7 0 16 0;
#X connect 9 0 1 0;
#X connect 9 0 18 0;
#X connect 10 0 2 0;
#X connect 11 0 14 0;
#X connect 11 1 15 1;
#X connect 12 0 2 0;
#X connect 13 0 27 0;
#X connect 13 0 20 0;
#X connect 14 0 15 0;
#X connect 18 0 19 0;
#X connect 18 0 24 0;
#X connect 19 0 8 0;
#X connect 20 0 28 0;
#X connect 20 0 26 0;
#X connect 21 0 7 0;
#X connect 21 0 6 0;
#X connect 21 0 8 1;
#X connect 21 0 29 0;
#X connect 22 0 21 0;
#X connect 22 0 23 0;
#X connect 23 0 21 0;
#X connect 24 0 23 0;
#X connect 25 0 22 0;
#X connect 26 0 25 0;
#X connect 27 0 21 0;
#X connect 28 0 21 0;
#X connect 29 0 5 0;
