#N canvas 280 67 1078 555 10;
#X obj 12 64 inlet;
#X msg -27 39 samplerate;
#X obj 185 301 phasor~;
#X obj 118 329 sig~;
#X obj 154 345 +~;
#X text 78 344 Start offset;
#X obj 154 409 threshold~ 0.999 0 0.999 0;
#X msg 67 382 set \$1 0 \$1 0;
#X obj 170 172 sig~;
#X text 114 153 <- #samples in selected audio;
#X obj 170 323 *~;
#X text -78 209 Phasor freq ->;
#X obj 200 178 inlet~;
#X obj 233 324 spigot;
#X obj 266 300 < 1;
#X obj 185 219 *~;
#X obj 13 210 sig~;
#X obj 185 244 *~;
#X obj 276 228 line~;
#X obj 276 199 pack 1 0;
#X obj 331 199 pack 0 0;
#X obj 388 199 delay;
#X msg 224 280 0;
#X msg 462 198 0 0;
#X text 452 182 Hard stop;
#X obj 319 409 outlet~;
#X obj 200 198 +~ 1;
#X obj 143 25 loadbang;
#X obj 13 90 route samplerate samplesize stop@ start@ playspeed loop
;
#X msg 143 46 samplerate 48000 \, samplesize 48000 \, start@ 0 \, stop@
0.999 \, playspeed 1 \, loop 0 \, starttime 0 \, stoptime 0;
#X obj 309 126 route starttime stoptime play pause stop hardstop status
;
#X obj 680 211 snapshot~;
#X obj 680 231 snapshot~;
#X obj 680 251 snapshot~;
#X msg 744 228 Frequency: \$1;
#X obj 938 351 print Status;
#X msg 744 248 Current Position: \$1;
#X msg 744 268 Start Location: \$1;
#X msg 744 288 Stop location: \$1;
#X obj 680 271 f;
#X obj 680 291 snapshot~;
#X msg 744 308 Base Frequency: \$1;
#X obj 680 311 snapshot~;
#X msg 744 328 Speed Adjustment: \$1;
#X obj 680 332 f;
#X msg 744 349 Selected Sample Size: \$1;
#X obj 680 352 f;
#X obj 680 372 f;
#X msg 744 369 Sample Rate: \$1;
#X msg 331 180 0;
#X obj 276 179 f 1;
#X obj 680 392 f;
#X msg 744 389 Starttime: \$1;
#X msg 744 409 Stoptime: \$1;
#X obj 680 412 f;
#X msg 744 429 Loop: \$1;
#X obj 13 189 /;
#X obj 67 130 mult;
#X obj 118 130 mult;
#X obj 77 155 --;
#X msg 152 450 set;
#X msg 286 453 reset;
#X obj -36 172 delay;
#X msg 388 178 stop;
#X connect 0 0 28 0;
#X connect 1 0 28 0;
#X connect 2 0 10 1;
#X connect 3 0 4 0;
#X connect 3 0 33 0;
#X connect 4 0 6 0;
#X connect 4 0 25 0;
#X connect 4 0 32 0;
#X connect 6 0 13 0;
#X connect 6 0 60 0;
#X connect 6 1 61 0;
#X connect 7 0 6 0;
#X connect 8 0 10 0;
#X connect 10 0 4 1;
#X connect 12 0 26 0;
#X connect 13 0 23 0;
#X connect 14 0 13 1;
#X connect 14 0 54 1;
#X connect 15 0 17 0;
#X connect 16 0 15 0;
#X connect 16 0 40 0;
#X connect 17 0 2 0;
#X connect 17 0 31 0;
#X connect 18 0 17 1;
#X connect 19 0 18 0;
#X connect 20 0 18 0;
#X connect 21 0 22 0;
#X connect 22 0 2 1;
#X connect 23 0 18 0;
#X connect 23 0 22 0;
#X connect 26 0 15 1;
#X connect 26 0 42 0;
#X connect 27 0 29 0;
#X connect 28 0 56 0;
#X connect 28 0 46 1;
#X connect 28 1 57 0;
#X connect 28 1 58 0;
#X connect 28 2 57 1;
#X connect 28 3 58 1;
#X connect 28 4 50 1;
#X connect 28 5 14 0;
#X connect 28 6 30 0;
#X connect 29 0 28 0;
#X connect 30 0 19 1;
#X connect 30 0 47 1;
#X connect 30 1 20 1;
#X connect 30 1 21 1;
#X connect 30 1 51 1;
#X connect 30 2 50 0;
#X connect 30 2 22 0;
#X connect 30 2 63 0;
#X connect 30 3 49 0;
#X connect 30 4 21 0;
#X connect 30 4 49 0;
#X connect 30 5 23 0;
#X connect 30 6 31 0;
#X connect 30 6 32 0;
#X connect 30 6 33 0;
#X connect 30 6 39 0;
#X connect 30 6 40 0;
#X connect 30 6 42 0;
#X connect 30 6 44 0;
#X connect 30 6 46 0;
#X connect 30 6 47 0;
#X connect 30 6 51 0;
#X connect 30 6 54 0;
#X connect 31 0 34 0;
#X connect 32 0 36 0;
#X connect 33 0 37 0;
#X connect 34 0 35 0;
#X connect 36 0 35 0;
#X connect 37 0 35 0;
#X connect 38 0 35 0;
#X connect 39 0 38 0;
#X connect 40 0 41 0;
#X connect 41 0 35 0;
#X connect 42 0 43 0;
#X connect 43 0 35 0;
#X connect 44 0 45 0;
#X connect 45 0 35 0;
#X connect 46 0 48 0;
#X connect 47 0 52 0;
#X connect 48 0 35 0;
#X connect 49 0 20 0;
#X connect 50 0 19 0;
#X connect 51 0 53 0;
#X connect 52 0 35 0;
#X connect 53 0 35 0;
#X connect 54 0 55 0;
#X connect 55 0 35 0;
#X connect 56 0 16 0;
#X connect 57 0 7 0;
#X connect 57 0 39 1;
#X connect 57 0 59 0;
#X connect 58 0 3 0;
#X connect 58 0 59 1;
#X connect 59 0 8 0;
#X connect 59 0 44 1;
#X connect 59 0 56 1;
#X connect 59 0 62 0;
#X connect 60 0 35 0;
#X connect 61 0 35 0;
#X connect 62 0 56 0;
#X connect 63 0 21 0;
