#N canvas 123 124 1219 555 10;
#X obj 305 500 phasor~;
#X obj 305 528 threshold~;
#X msg 155 511 set \$1 0 1 0;
#X obj 305 550 f 0;
#X obj 306 140 /;
#X obj 306 159 sig~;
#X obj 327 179 inlet~;
#X obj 305 219 *~;
#X obj 327 199 +~ 1;
#X text 369 178 <- Speed adjust in;
#X text 210 140 Phasor speed ->;
#X obj 305 479 *~;
#X obj 320 437 line~;
#X text 330 218 <- Final adjusted frequency;
#X obj 310 392 f;
#X obj 358 392 f;
#X msg 310 371 bang;
#X msg 358 371 bang;
#X obj 422 459 spigot;
#X text 382 392 ]<- start/stop times;
#X text 297 392 [;
#X msg 367 414 0 \$1;
#X msg 466 442 1;
#X msg 481 442 0;
#X text 465 459 <- phase reset for stop;
#X obj 379 548 outlet~;
#X obj 379 527 *~;
#X obj 394 506 sig~;
#X obj 321 34 inlet;
#X msg 401 414 0 0;
#X obj 212 568 spigot;
#X obj 155 488 route stop@ start@ loop;
#X obj 245 540 < 1;
#X obj 321 56 route samplerate samplesize playspeed file settings;
#X obj 398 114 /;
#X obj 398 87 t b f;
#X obj 516 553 outlet;
#X text 567 551 <- stop bang;
#X msg 516 532 bang;
#X obj 551 532 delay;
#X msg 551 509 stop;
#X obj 320 458 sin~;
#X msg 310 414 0.25 \$1;
#X obj 326 108 t b f;
#N canvas 358 322 1362 692 altstop2 1;
#X msg 46 171 1;
#X msg 76 171 2;
#X obj -62 132 loadbang;
#X obj 52 236 outlet;
#X text 54 254 play;
#X obj 152 237 outlet;
#X text 156 255 pause;
#X obj 196 238 outlet;
#X text 200 256 stop;
#X msg 167 176 1;
#X msg 194 176 2;
#N canvas 296 184 450 300 spigot2 0;
#X obj 87 154 spigot;
#X obj 154 153 spigot;
#X obj 51 36 inlet;
#X obj 87 175 outlet;
#X obj 154 175 outlet;
#X obj 51 56 sel 1 2;
#X obj 176 65 inlet;
#X msg 128 131 1;
#X msg 115 131 0;
#X msg 182 132 0;
#X msg 200 132 1;
#X msg 115 73 bang;
#X connect 0 0 3 0;
#X connect 1 0 4 0;
#X connect 2 0 5 0;
#X connect 5 0 7 0;
#X connect 5 0 9 0;
#X connect 5 1 8 0;
#X connect 5 1 10 0;
#X connect 5 2 11 0;
#X connect 6 0 0 0;
#X connect 6 0 1 0;
#X connect 7 0 0 1;
#X connect 8 0 0 1;
#X connect 9 0 1 1;
#X connect 10 0 1 1;
#X connect 11 0 8 0;
#X connect 11 0 9 0;
#X restore 182 206 pd spigot2;
#N canvas 296 184 450 300 spigot2 0;
#X obj 87 154 spigot;
#X obj 154 153 spigot;
#X obj 51 36 inlet;
#X obj 87 175 outlet;
#X obj 154 175 outlet;
#X obj 51 56 sel 1 2;
#X obj 176 65 inlet;
#X msg 128 131 1;
#X msg 115 131 0;
#X msg 182 132 0;
#X msg 200 132 1;
#X msg 115 73 bang;
#X connect 0 0 3 0;
#X connect 1 0 4 0;
#X connect 2 0 5 0;
#X connect 5 0 7 0;
#X connect 5 0 9 0;
#X connect 5 1 8 0;
#X connect 5 1 10 0;
#X connect 5 2 11 0;
#X connect 6 0 0 0;
#X connect 6 0 1 0;
#X connect 7 0 0 1;
#X connect 8 0 0 1;
#X connect 9 0 1 1;
#X connect 10 0 1 1;
#X connect 11 0 8 0;
#X connect 11 0 9 0;
#X restore 52 199 pd spigot2;
#X obj 81 14 inlet;
#X obj 81 40 route play pause stop altstop nothing hardstop;
#X obj 394 77 route altstopreset;
#X obj 293 231 print;
#X obj 217 114 spigot;
#X msg 235 81 1;
#X msg 263 80 0;
#X connect 0 0 12 0;
#X connect 1 0 12 0;
#X connect 2 0 0 0;
#X connect 2 0 9 0;
#X connect 9 0 11 0;
#X connect 10 0 11 0;
#X connect 11 0 1 0;
#X connect 11 1 9 0;
#X connect 12 0 3 0;
#X connect 12 1 7 0;
#X connect 12 1 9 0;
#X connect 12 1 10 0;
#X connect 12 1 0 0;
#X connect 13 0 14 0;
#X connect 14 0 12 1;
#X connect 14 0 18 0;
#X connect 14 1 5 0;
#X connect 14 2 7 0;
#X connect 14 3 17 0;
#X connect 14 5 9 0;
#X connect 14 5 0 0;
#X connect 14 5 19 0;
#X connect 14 6 15 0;
#X connect 15 0 9 0;
#X connect 15 0 0 0;
#X connect 15 0 19 0;
#X connect 17 0 11 1;
#X connect 18 0 17 1;
#X connect 19 0 17 1;
#X restore 356 295 pd altstop2;
#X obj 325 247 route starttime stoptime hardstop;
#X obj 520 281 route nothing;
#X obj 642 283 route phaseresetenable;
#X obj 632 348 sel 1 0;
#X msg 527 361 altstopreset;
#X obj 724 439 print;
#X connect 0 0 1 0;
#X connect 0 0 26 0;
#X connect 1 0 3 0;
#X connect 1 0 30 0;
#X connect 2 0 1 0;
#X connect 3 0 0 1;
#X connect 4 0 5 0;
#X connect 5 0 7 0;
#X connect 6 0 8 0;
#X connect 7 0 11 0;
#X connect 8 0 7 1;
#X connect 11 0 0 0;
#X connect 12 0 41 0;
#X connect 14 0 42 0;
#X connect 15 0 21 0;
#X connect 16 0 14 0;
#X connect 17 0 15 0;
#X connect 17 0 39 0;
#X connect 18 0 3 0;
#X connect 21 0 12 0;
#X connect 22 0 18 1;
#X connect 23 0 18 1;
#X connect 26 0 25 0;
#X connect 27 0 26 1;
#X connect 28 0 33 0;
#X connect 29 0 12 0;
#X connect 29 0 38 0;
#X connect 30 0 29 0;
#X connect 31 0 2 0;
#X connect 31 1 3 1;
#X connect 31 2 32 0;
#X connect 32 0 30 1;
#X connect 33 0 4 0;
#X connect 33 1 27 0;
#X connect 33 1 34 0;
#X connect 33 2 35 0;
#X connect 33 5 45 0;
#X connect 33 5 44 0;
#X connect 34 0 43 0;
#X connect 35 0 34 0;
#X connect 35 1 34 1;
#X connect 38 0 36 0;
#X connect 38 0 49 0;
#X connect 39 0 36 0;
#X connect 39 0 49 0;
#X connect 40 0 39 0;
#X connect 41 0 11 1;
#X connect 42 0 12 0;
#X connect 43 0 4 0;
#X connect 43 1 4 1;
#X connect 44 0 16 0;
#X connect 44 0 18 0;
#X connect 44 0 40 0;
#X connect 44 1 17 0;
#X connect 44 1 23 0;
#X connect 44 2 17 0;
#X connect 44 2 22 0;
#X connect 45 0 14 1;
#X connect 45 1 15 1;
#X connect 45 1 39 1;
#X connect 45 2 29 0;
#X connect 45 3 31 0;
#X connect 45 3 46 0;
#X connect 45 3 47 0;
#X connect 46 0 22 0;
#X connect 47 0 48 0;
#X connect 48 0 22 0;
#X connect 48 1 23 0;
#X connect 49 0 44 0;
